<svg width="131" height="58" viewBox="0 0 131 58" fill="none" xmlns="http://www.w3.org/2000/svg">
<path d="M10.9123 25.5182C9.18989 26.0848 7.85277 27.0253 6.90092 28.3398C5.97173 29.6316 5.50714 31.2407 5.50714 33.167C5.50714 34.0282 5.58646 34.6175 5.7451 34.9347C5.90374 35.252 5.98306 35.4447 5.98306 35.5127C3.55811 35.5127 2.34563 34.4815 2.34563 32.4191C2.34563 31.014 2.87821 29.6089 3.94338 28.2038C5.03121 26.776 6.41366 25.6202 8.09073 24.7363C9.79046 23.8298 11.4789 23.3766 13.1559 23.3766C13.9945 23.3766 14.8557 23.5352 15.7395 23.8525L14.9577 41.7677L22.4365 23.8525H27.3317L23.7623 48.8726H18.867L21.0427 33.609L14.6517 48.8726H9.99443L10.6743 33.541L4.99722 48.8726H2.27764L10.9123 25.5182ZM31.6188 49.0765C29.9417 49.0765 28.6386 48.6459 27.7094 47.7847C26.7802 46.9009 26.3156 45.5297 26.3156 43.6714C26.3156 42.1076 26.6215 40.3852 27.2334 38.5042C27.8453 36.6231 28.8425 35.0027 30.225 33.6429C31.6074 32.2605 33.3638 31.5693 35.4941 31.5693C37.9871 31.5693 39.2336 32.6571 39.2336 34.8328C39.2336 36.1019 38.871 37.269 38.1457 38.3342C37.4205 39.3994 36.4573 40.2606 35.2562 40.9178C34.055 41.5524 32.7746 41.915 31.4148 42.0056C31.3695 42.6855 31.3468 43.1388 31.3468 43.3654C31.3468 44.4759 31.5394 45.2351 31.9247 45.6431C32.31 46.0283 32.9332 46.221 33.7944 46.221C35.0182 46.221 36.0607 45.9377 36.9219 45.3711C37.8058 44.8045 38.769 43.9433 39.8115 42.7875H40.9673C38.4517 46.9802 35.3355 49.0765 31.6188 49.0765ZM31.6867 40.3739C32.5253 40.3286 33.3185 40.0339 34.0664 39.49C34.8369 38.9461 35.4488 38.2549 35.9021 37.4164C36.378 36.5778 36.616 35.694 36.616 34.7648C36.616 33.8356 36.3327 33.371 35.7661 33.371C34.9502 33.371 34.1457 34.0849 33.3525 35.5127C32.5819 36.9404 32.0267 38.5608 31.6867 40.3739ZM43.1698 49.0765C42.0819 49.0765 41.1981 48.7366 40.5182 48.0567C39.861 47.3768 39.5323 46.357 39.5323 44.9972C39.5323 44.4306 39.623 43.694 39.8043 42.7875L43.4417 25.7562L48.4729 25.0763L44.5636 43.4334C44.4729 43.7734 44.4276 44.136 44.4276 44.5212C44.4276 44.9745 44.5296 45.3031 44.7335 45.5071C44.9602 45.6884 45.3228 45.779 45.8214 45.779C46.4786 45.779 47.0905 45.5071 47.6571 44.9632C48.2236 44.3966 48.6316 43.6714 48.8809 42.7875H50.3086C49.4701 45.2351 48.3936 46.9009 47.0792 47.7847C45.7647 48.6459 44.4616 49.0765 43.1698 49.0765ZM54.5444 30.0395C53.7966 30.0395 53.162 29.7789 52.6407 29.2576C52.1195 28.7364 51.8589 28.1018 51.8589 27.3539C51.8589 26.6061 52.1195 25.9715 52.6407 25.4502C53.162 24.9063 53.7966 24.6344 54.5444 24.6344C55.2923 24.6344 55.9269 24.9063 56.4481 25.4502C56.9921 25.9715 57.264 26.6061 57.264 27.3539C57.264 28.1018 56.9921 28.7364 56.4481 29.2576C55.9269 29.7789 55.2923 30.0395 54.5444 30.0395ZM52.2328 49.0765C51.145 49.0765 50.2611 48.7366 49.5812 48.0567C48.924 47.3768 48.5954 46.357 48.5954 44.9972C48.5954 44.4306 48.686 43.694 48.8673 42.7875L51.179 31.8752H56.0742L53.6266 43.4334C53.5359 43.7734 53.4906 44.136 53.4906 44.5212C53.4906 44.9745 53.5926 45.3031 53.7966 45.5071C54.0232 45.6884 54.3858 45.779 54.8844 45.779C55.5416 45.779 56.1535 45.5071 56.7201 44.9632C57.2867 44.3966 57.6946 43.6714 57.9439 42.7875H59.3717C58.5331 45.2351 57.4566 46.9009 56.1422 47.7847C54.8277 48.6459 53.5246 49.0765 52.2328 49.0765ZM61.8058 49.0765C60.7179 49.0765 59.8001 48.8726 59.0522 48.4646C58.3043 48.034 57.7491 47.4901 57.3864 46.8329C57.0238 46.153 56.8425 45.4504 56.8425 44.7252C56.8425 43.9773 57.0238 43.3314 57.3864 42.7875C57.7264 42.2209 58.1457 41.813 58.6442 41.5637C59.5281 39.9773 60.2987 38.3795 60.9559 36.7705C61.6131 35.1387 62.2363 33.3823 62.8256 31.5013L67.8568 30.8214C67.9701 33.7223 68.1628 36.8611 68.4347 40.2379C68.548 41.5977 68.6047 42.5835 68.6047 43.1954C68.6047 43.7167 68.5594 44.1473 68.4687 44.4872C69.5339 43.8753 70.3497 43.3088 70.9163 42.7875H72.3441C70.8937 44.4646 69.1599 45.881 67.1429 47.0368C66.4857 47.7394 65.6698 48.2607 64.6953 48.6006C63.7434 48.9179 62.7803 49.0765 61.8058 49.0765ZM60.7179 46.3909C61.5565 46.3909 62.259 46.1417 62.8256 45.6431C63.3922 45.1445 63.6755 44.3399 63.6755 43.2294C63.6755 42.5496 63.6075 41.5977 63.4715 40.3739C63.2449 37.7903 63.0975 36.0566 63.0296 35.1727C62.4856 36.9631 61.5678 39.1048 60.276 41.5977C60.7972 41.8697 61.0579 42.2663 61.0579 42.7875C61.0579 43.2181 60.9106 43.6034 60.6159 43.9433C60.344 44.2833 59.9927 44.4533 59.5621 44.4533C59.0862 44.4533 58.7802 44.3059 58.6442 44.0113C58.6442 44.8272 58.8029 45.4278 59.1202 45.813C59.4601 46.1983 59.9927 46.3909 60.7179 46.3909ZM74.7861 49.0765C73.6983 49.0765 72.7805 48.8726 72.0326 48.4646C71.2847 48.034 70.7294 47.4901 70.3668 46.8329C70.0042 46.153 69.8229 45.4504 69.8229 44.7252C69.8229 43.9773 70.0042 43.3314 70.3668 42.7875C70.7068 42.2209 71.126 41.813 71.6246 41.5637C72.5085 39.9773 73.279 38.3795 73.9363 36.7705C74.5935 35.1387 75.2167 33.3823 75.806 31.5013L80.8372 30.8214C80.9505 33.7223 81.1431 36.8611 81.4151 40.2379C81.5284 41.5977 81.5851 42.5835 81.5851 43.1954C81.5851 43.7167 81.5397 44.1473 81.4491 44.4872C82.5143 43.8753 83.3301 43.3088 83.8967 42.7875H85.3245C83.874 44.4646 82.1403 45.881 80.1233 47.0368C79.4661 47.7394 78.6502 48.2607 77.6757 48.6006C76.7238 48.9179 75.7606 49.0765 74.7861 49.0765ZM73.6983 46.3909C74.5368 46.3909 75.2394 46.1417 75.806 45.6431C76.3726 45.1445 76.6558 44.3399 76.6558 43.2294C76.6558 42.5496 76.5879 41.5977 76.4519 40.3739C76.2252 37.7903 76.0779 36.0566 76.0099 35.1727C75.466 36.9631 74.5482 39.1048 73.2564 41.5977C73.7776 41.8697 74.0383 42.2663 74.0383 42.7875C74.0383 43.2181 73.8909 43.6034 73.5963 43.9433C73.3244 44.2833 72.9731 44.4533 72.5425 44.4533C72.0666 44.4533 71.7606 44.3059 71.6246 44.0113C71.6246 44.8272 71.7833 45.4278 72.1006 45.813C72.4405 46.1983 72.9731 46.3909 73.6983 46.3909ZM87.9705 49.0765C86.6787 49.0765 85.6022 48.6346 84.741 47.7507C83.8798 46.8669 83.4492 45.4844 83.4492 43.6034C83.4492 41.9263 83.7778 40.1699 84.435 38.3342C85.1149 36.4758 86.1121 34.9121 87.4266 33.6429C88.7637 32.3512 90.3501 31.7053 92.1858 31.7053C93.115 31.7053 93.8062 31.8639 94.2595 32.1812C94.7128 32.4985 94.9394 32.9177 94.9394 33.439V33.6769L95.3133 31.8752H100.209L97.761 43.4334C97.6703 43.7734 97.625 44.136 97.625 44.5212C97.625 44.9745 97.727 45.3031 97.9309 45.5071C98.1576 45.6884 98.5202 45.779 99.0188 45.779C99.336 45.779 99.5853 45.7337 99.7666 45.6431C99.268 46.9122 98.7921 47.8074 98.3389 48.3286C97.8856 48.8272 97.2284 49.0765 96.3672 49.0765C95.438 49.0765 94.6788 48.8046 94.0895 48.2607C93.523 47.6941 93.1717 46.9122 93.0357 45.915C91.6532 48.0227 89.9648 49.0765 87.9705 49.0765ZM90.1801 45.779C90.7467 45.779 91.302 45.5184 91.8459 44.9972C92.4125 44.4533 92.7977 43.7167 93.0017 42.7875L94.6334 35.1047C94.6334 34.8101 94.5201 34.5268 94.2935 34.2549C94.0669 33.9602 93.7156 33.8129 93.2397 33.8129C92.3331 33.8129 91.5173 34.3455 90.792 35.4107C90.0668 36.4532 89.5002 37.7223 89.0923 39.2181C88.6844 40.6912 88.4804 41.9943 88.4804 43.1275C88.4804 44.2606 88.6391 44.9858 88.9563 45.3031C89.2963 45.6204 89.7042 45.779 90.1801 45.779Z" fill="#F9FAFC"/>
<g filter="url(#filter0_d)">
<path d="M120.142 36.4318C120.142 36.4318 120.345 37.6963 119.774 39.1237C119.774 39.1237 119.835 39.8637 119.583 40.7269C119.542 40.8681 119.685 40.9911 119.821 40.9343C120.202 40.7746 120.881 40.562 121.884 40.5009C123.576 40.3978 124.425 39.6471 124.668 38.7171C124.837 38.0748 124.546 37.2487 124.546 37.2487L120.55 35.4122L120.142 36.4318Z" fill="#FFDC50"/>
<path d="M127.788 33.9873C127.895 34.0594 127.918 34.2075 127.849 34.3164C127.392 35.0401 125.775 37.5591 125.4 37.5903C124.91 37.6309 121.814 36.3914 120.55 35.4121L120.876 34.5965C120.876 34.5964 124.589 31.8239 127.788 33.9873Z" fill="#FFDC50"/>
<path d="M127.3 35.1697C127.222 35.2889 127.14 35.4128 127.055 35.5395C126.206 35.0763 123.821 33.9515 121.37 34.3944C123.698 34.9372 125.417 36.1628 126.177 36.7871C126.082 36.914 125.99 37.0312 125.904 37.1349C125.129 36.5041 123.273 35.1868 120.823 34.7297L120.876 34.5967C120.876 34.5967 121.374 34.226 122.16 33.8614C124.468 33.7375 126.528 34.7376 127.3 35.1697Z" fill="#FFBE46"/>
<path d="M124.546 37.2487C124.546 37.2487 124.837 38.0747 124.668 38.717C124.56 39.1302 124.331 39.5075 123.964 39.8088C123.641 39.042 122.718 37.1125 121.093 35.6617L124.546 37.2487Z" fill="#FFBE46"/>
<path d="M120.142 36.4317C120.142 36.4317 119.122 37.2064 118.55 38.6338C118.55 38.6338 117.995 39.127 117.582 39.9258C117.514 40.0564 117.326 40.0463 117.267 39.9116C117.101 39.533 116.757 38.911 116.072 38.1743C114.919 36.9321 114.823 35.8034 115.288 34.9621C115.61 34.3809 116.39 33.9834 116.39 33.9834L120.55 35.4121L120.142 36.4317Z" fill="#FFDC50"/>
<path d="M116.294 29.3862C116.167 29.3648 116.048 29.4557 116.022 29.5821C115.854 30.4214 115.287 33.3608 115.536 33.642C115.863 34.0092 118.959 35.2487 120.55 35.4123L120.876 34.5966C120.876 34.5966 120.102 30.0282 116.294 29.3862Z" fill="#FFDC50"/>
<path d="M115.831 30.5787C115.806 30.7189 115.78 30.8652 115.754 31.0154C116.688 31.2661 119.19 32.0973 120.658 34.1093C118.599 32.8958 116.509 32.5969 115.528 32.5239C115.51 32.6819 115.495 32.8302 115.486 32.9646C116.482 33.0425 118.734 33.3699 120.823 34.7295L120.876 34.5965C120.876 34.5965 120.772 33.9847 120.454 33.1783C118.869 31.4962 116.688 30.7987 115.831 30.5787Z" fill="#FFBE46"/>
<path d="M116.39 33.9837C116.39 33.9837 115.61 34.3812 115.288 34.9624C115.082 35.3361 114.987 35.7669 115.045 36.2388C115.808 35.9067 117.807 35.1469 119.984 35.2183L116.39 33.9837Z" fill="#FFBE46"/>
<path d="M120.999 34.2907C121.044 34.3087 121.095 34.2951 121.125 34.2571C122.046 33.1001 123.103 32.7472 123.113 32.7438C123.171 32.725 123.202 32.663 123.184 32.6054C123.165 32.5477 123.103 32.5164 123.045 32.5349C123.003 32.5485 122.07 32.8603 121.169 33.8656C121.21 32.5162 120.75 31.6467 120.729 31.6077C120.7 31.5538 120.634 31.5346 120.58 31.5632C120.527 31.5919 120.507 31.6586 120.536 31.7119C120.541 31.7217 121.062 32.7106 120.93 34.179C120.926 34.2274 120.954 34.2727 120.999 34.2907Z" fill="#B49F77"/>
<path d="M119.488 38.0631C119.601 38.1082 119.729 38.0535 119.774 37.9408L121.243 34.2703C121.288 34.1576 121.234 34.0299 121.121 33.9848C121.008 33.9397 120.88 33.9944 120.835 34.1071L119.366 37.7776C119.321 37.8903 119.376 38.018 119.488 38.0631Z" fill="#A58C69"/>
<path d="M120.142 36.4318C120.367 36.522 120.623 36.4125 120.713 36.1873L121.203 34.9638C121.293 34.7385 121.183 34.4828 120.958 34.3926C120.733 34.3025 120.477 34.412 120.387 34.6372L119.897 35.8607C119.807 36.086 119.916 36.3417 120.142 36.4318Z" fill="#B49F77"/>
</g>
<g filter="url(#filter1_d)">
<path d="M110.515 10.8596C111.82 10.2536 113.964 10.3157 114.57 11.6209C115.177 12.9262 115.021 18.287 111.976 19.701C111.105 20.105 104.999 16.065 104.999 16.065L103.989 13.8896C103.989 13.8896 109.645 11.2636 110.515 10.8596Z" fill="#FFA046"/>
<path d="M104.177 14.2949C107.681 14.0655 112.86 13.8316 114.851 13.7447C114.807 15.8517 114.084 18.7218 111.976 19.7008C111.105 20.1048 104.191 14.3245 104.191 14.3245L104.177 14.2949V14.2949Z" fill="#FF8C41"/>
<path d="M109.924 1.6139C111.129 0.691886 112.768 -0.235169 113.374 1.07007C113.98 2.37532 113.36 3.68537 113.887 5.59177C114.248 6.90058 114.297 7.78199 114.245 8.35041C114.2 8.85725 113.88 9.29673 113.419 9.51104L104.424 13.6873L104.222 13.2522C104.222 13.2523 106.413 4.30213 109.924 1.6139Z" fill="#FF8C41"/>
<path d="M104.222 13.2523C104.222 13.2523 106.413 4.30206 109.924 1.61388C111.129 0.691863 112.768 -0.235192 113.374 1.07005C113.439 1.21052 113.484 1.35135 113.524 1.49276C111.87 2.08841 108.234 3.37418 104.859 13.4854L104.424 13.6874L104.222 13.2523L104.222 13.2523Z" fill="#FF783C"/>
<path d="M112.674 2.98158L113.661 2.52366C113.668 2.86109 113.656 3.21277 113.654 3.58468L113.078 3.85173C112.838 3.96337 112.553 3.85891 112.441 3.61864C112.33 3.37837 112.434 3.09323 112.674 2.98158Z" fill="#594759"/>
<path d="M112.379 5.76273C112.268 5.52246 112.372 5.23729 112.612 5.12562L113.707 4.61723C113.742 4.92676 113.791 5.24667 113.886 5.59177L113.016 5.99577C112.776 6.10747 112.491 6.003 112.379 5.76273Z" fill="#594759"/>
<path d="M113.187 7.50321C113.076 7.26294 113.18 6.97777 113.42 6.8661L114.111 6.54532C114.184 6.92283 114.227 7.25324 114.247 7.54016L113.824 7.73625C113.584 7.8479 113.299 7.74348 113.187 7.50321Z" fill="#594759"/>
<path d="M108.024 7.78488C108.265 7.67331 108.369 7.38807 108.257 7.14777C108.146 6.90747 107.861 6.80312 107.62 6.91469C107.38 7.02625 107.276 7.3115 107.387 7.5518C107.499 7.79209 107.784 7.89645 108.024 7.78488Z" fill="#594759"/>
<path d="M110.635 6.57297C110.875 6.4614 110.979 6.17615 110.868 5.93586C110.756 5.69556 110.471 5.5912 110.231 5.70277C109.99 5.81434 109.886 6.09959 109.998 6.33988C110.109 6.58018 110.394 6.68454 110.635 6.57297Z" fill="#594759"/>
<path d="M109.94 8.48239C110.18 8.37082 110.284 8.08558 110.173 7.84528C110.061 7.60498 109.776 7.50063 109.536 7.6122C109.296 7.72376 109.191 8.00901 109.303 8.24931C109.414 8.4896 109.7 8.59396 109.94 8.48239Z" fill="#594759"/>
<path d="M107.329 9.69431C107.57 9.58274 107.674 9.29749 107.562 9.05719C107.451 8.8169 107.166 8.71254 106.925 8.82411C106.685 8.93568 106.581 9.22092 106.692 9.46122C106.804 9.70152 107.089 9.80587 107.329 9.69431Z" fill="#594759"/>
<path d="M109.239 10.3967C109.48 10.2851 109.584 9.99988 109.472 9.75959C109.361 9.51929 109.076 9.41493 108.835 9.5265C108.595 9.63807 108.491 9.92332 108.602 10.1636C108.714 10.4039 108.999 10.5083 109.239 10.3967Z" fill="#594759"/>
<path d="M113.03 13.8566C112.918 12.0465 112.24 11.1497 110.998 10.6784C112.296 10.2856 114.034 10.4664 114.57 11.621C115.166 12.9029 115.024 18.0946 112.133 19.619C112.194 18.3649 113.176 16.2167 113.03 13.8566Z" fill="#594759"/>
<path d="M111.09 13.237C111.33 13.1255 111.434 12.8402 111.323 12.5999C111.211 12.3596 110.926 12.2553 110.686 12.3668C110.445 12.4784 110.341 12.7636 110.453 13.0039C110.564 13.2442 110.849 13.3486 111.09 13.237Z" fill="#594759"/>
<path d="M111.023 15.3833C111.264 15.2717 111.368 14.9865 111.256 14.7462C111.145 14.5059 110.86 14.4015 110.619 14.5131C110.379 14.6246 110.275 14.9099 110.386 15.1502C110.498 15.3905 110.783 15.4948 111.023 15.3833Z" fill="#594759"/>
<path d="M113.676 12.2566C113.916 12.145 114.02 11.8597 113.909 11.6194C113.797 11.3792 113.512 11.2748 113.272 11.3864C113.031 11.4979 112.927 11.7832 113.039 12.0235C113.15 12.2638 113.435 12.3681 113.676 12.2566Z" fill="#FF783C"/>
<path d="M114.018 13.8493C114.224 13.754 114.313 13.5103 114.218 13.3051C114.122 13.0999 113.879 13.0107 113.673 13.106C113.468 13.2013 113.379 13.4449 113.474 13.6502C113.57 13.8554 113.813 13.9446 114.018 13.8493Z" fill="#FF783C"/>
<path d="M113.994 15.4575C114.184 15.3693 114.266 15.1438 114.178 14.9538C114.09 14.7638 113.864 14.6813 113.674 14.7695C113.484 14.8577 113.402 15.0832 113.49 15.2732C113.578 15.4632 113.804 15.5457 113.994 15.4575Z" fill="#FF783C"/>
<path d="M113.669 16.9414C113.849 16.8579 113.927 16.6442 113.844 16.4642C113.76 16.2842 113.547 16.206 113.367 16.2896C113.187 16.3732 113.108 16.5868 113.192 16.7668C113.276 16.9469 113.489 17.025 113.669 16.9414Z" fill="#FF783C"/>
<path d="M97.4625 16.9197C96.1573 17.5257 94.821 19.2039 95.427 20.5091C96.033 21.8144 100.228 25.1551 103.274 23.7411C104.144 23.3371 104.999 16.065 104.999 16.065L103.989 13.8896C103.989 13.8896 98.3327 16.5157 97.4625 16.9197Z" fill="#FFA046"/>
<path d="M104.177 14.2949C101.74 16.8236 98.2194 20.6293 96.8685 22.0939C98.5066 23.4197 101.165 24.7198 103.274 23.7408C104.144 23.3368 104.191 14.3245 104.191 14.3245L104.177 14.2949Z" fill="#FF8C41"/>
<path d="M90.7812 10.503C89.2996 10.8282 87.5337 11.482 88.1397 12.7872C88.7457 14.0925 90.1465 14.4643 91.263 16.0969C92.0295 17.2177 92.6714 17.8236 93.1388 18.1511C93.5556 18.4432 94.0973 18.4829 94.5589 18.2686L103.554 14.0923L103.352 13.6572C103.352 13.6572 95.1009 9.55516 90.7812 10.503Z" fill="#FF8C41"/>
<path d="M103.352 13.6572C103.352 13.6572 95.1008 9.55511 90.7811 10.503C89.2994 10.8282 87.5336 11.482 88.1396 12.7872C88.2048 12.9277 88.2832 13.0531 88.3655 13.1748C89.8878 12.2958 93.2166 10.3476 103.119 14.2944L103.554 14.0924L103.352 13.6572L103.352 13.6572Z" fill="#FF783C"/>
<path d="M103.251 13.4401C103.15 13.4868 103.026 13.4581 102.958 13.3651C100.217 9.67022 96.8303 8.98943 96.7964 8.98298C96.6665 8.95806 96.5809 8.83254 96.6057 8.70251C96.6303 8.57204 96.7556 8.48703 96.8863 8.51153C97.032 8.53939 100.492 9.23535 103.342 13.0795C103.422 13.1858 103.399 13.3362 103.293 13.4151C103.28 13.4247 103.265 13.4331 103.251 13.4401Z" fill="#908490"/>
<path d="M104.121 13.0345C104.107 13.0413 104.091 13.0468 104.075 13.0506C103.946 13.081 103.817 13.0011 103.787 12.872C102.69 8.21346 104.391 5.12158 104.463 4.99226C104.529 4.87635 104.675 4.83634 104.79 4.90114C104.905 4.96609 104.946 5.11213 104.881 5.22758C104.865 5.25792 103.202 8.29579 104.253 12.7622C104.28 12.8749 104.222 12.9877 104.121 13.0345Z" fill="#908490"/>
<path d="M97.043 9.18161C97.2833 9.07004 97.3876 8.7848 97.2761 8.5445C97.1645 8.3042 96.8793 8.19985 96.639 8.31141C96.3987 8.42298 96.2943 8.70823 96.4059 8.94853C96.5174 9.18882 96.8027 9.29318 97.043 9.18161Z" fill="#6B5B6B"/>
<path d="M104.874 5.54562C105.115 5.43405 105.219 5.14881 105.107 4.90851C104.996 4.66821 104.711 4.56386 104.47 4.67543C104.23 4.787 104.126 5.07224 104.237 5.31254C104.349 5.55284 104.634 5.65719 104.874 5.54562Z" fill="#6B5B6B"/>
<path d="M103.383 12.5843C102.902 12.8074 102.694 13.3778 102.917 13.8584L103.725 15.5987C103.874 15.92 104.179 16.1157 104.508 16.1462L106.584 20.6176C106.696 20.8579 106.981 20.9624 107.221 20.8507C107.462 20.7391 107.566 20.4539 107.454 20.2136L105.378 15.7422C105.567 15.4712 105.614 15.1119 105.465 14.7907L104.657 13.0504C104.434 12.5698 103.864 12.3612 103.383 12.5843Z" fill="#594759"/>
<path d="M90.0507 13.4857L89.0645 13.9436C89.3177 14.1667 89.5941 14.3844 89.8796 14.6229L90.4547 14.3558C90.6952 14.2442 90.7994 13.959 90.6878 13.7187C90.5762 13.4785 90.2912 13.374 90.0507 13.4857Z" fill="#594759"/>
<path d="M92.3661 15.0548C92.2546 14.8145 91.9695 14.71 91.729 14.8217L90.634 15.3301C90.8484 15.556 91.0608 15.8003 91.2629 16.0958L92.133 15.6918C92.3735 15.5802 92.4777 15.295 92.3661 15.0548Z" fill="#594759"/>
<path d="M93.1741 16.7954C93.0625 16.5551 92.7775 16.4506 92.537 16.5623L91.8461 16.8831C92.0874 17.1823 92.3124 17.428 92.5186 17.6285L92.941 17.4324C93.1814 17.3208 93.2856 17.0356 93.1741 16.7954Z" fill="#594759"/>
<path d="M96.7212 13.0329C96.9615 12.9214 97.0659 12.6361 96.9543 12.3958C96.8427 12.1555 96.5575 12.0512 96.3172 12.1627C96.0769 12.2743 95.9725 12.5595 96.0841 12.7998C96.1957 13.0401 96.4809 13.1445 96.7212 13.0329Z" fill="#594759"/>
<path d="M94.1109 14.2448C94.3512 14.1333 94.4555 13.848 94.3439 13.6077C94.2324 13.3674 93.9471 13.2631 93.7068 13.3746C93.4665 13.4862 93.3622 13.7715 93.4737 14.0118C93.5853 14.2521 93.8706 14.3564 94.1109 14.2448Z" fill="#594759"/>
<path d="M96.0177 14.9463C96.258 14.8347 96.3624 14.5494 96.2508 14.3091C96.1392 14.0688 95.854 13.9645 95.6137 14.0761C95.3734 14.1876 95.269 14.4729 95.3806 14.7132C95.4922 14.9535 95.7774 15.0578 96.0177 14.9463Z" fill="#594759"/>
<path d="M98.6281 13.7343C98.8684 13.6228 98.9727 13.3375 98.8611 13.0972C98.7496 12.8569 98.4643 12.7526 98.224 12.8641C97.9837 12.9757 97.8794 13.261 97.991 13.5013C98.1025 13.7416 98.3878 13.8459 98.6281 13.7343Z" fill="#594759"/>
<path d="M97.9321 15.6465C98.1724 15.5349 98.2768 15.2496 98.1652 15.0093C98.0537 14.769 97.7684 14.6647 97.5281 14.7763C97.2878 14.8878 97.1835 15.1731 97.295 15.4134C97.4066 15.6537 97.6918 15.758 97.9321 15.6465Z" fill="#594759"/>
<path d="M98.1289 20.775C96.8182 19.5215 96.5711 18.4244 97.0126 17.1714C95.8749 17.9094 94.891 19.3544 95.4271 20.5089C96.0223 21.7909 100.079 25.0332 103.109 23.8087C102.112 23.0457 99.8377 22.4094 98.1289 20.775Z" fill="#594759"/>
<path d="M98.9079 18.893C99.1481 18.7815 99.2525 18.4962 99.1409 18.2559C99.0294 18.0156 98.7441 17.9113 98.5038 18.0228C98.2635 18.1344 98.1592 18.4197 98.2707 18.66C98.3823 18.9002 98.6676 19.0046 98.9079 18.893Z" fill="#594759"/>
<path d="M100.59 20.2273C100.831 20.1157 100.935 19.8305 100.823 19.5902C100.712 19.3499 100.427 19.2455 100.186 19.3571C99.946 19.4686 99.8417 19.7539 99.9532 19.9942C100.065 20.2345 100.35 20.3388 100.59 20.2273Z" fill="#594759"/>
<path d="M96.4901 20.2356C96.7304 20.124 96.8348 19.8388 96.7232 19.5985C96.6116 19.3582 96.3264 19.2538 96.0861 19.3654C95.8458 19.4769 95.7414 19.7622 95.853 20.0025C95.9646 20.2428 96.2498 20.3471 96.4901 20.2356Z" fill="#FF783C"/>
<path d="M97.4856 21.5255C97.6909 21.4302 97.78 21.1866 97.6847 20.9814C97.5894 20.7761 97.3458 20.687 97.1405 20.7823C96.9353 20.8776 96.8462 21.1212 96.9415 21.3265C97.0368 21.5317 97.2804 21.6208 97.4856 21.5255Z" fill="#FF783C"/>
<path d="M98.73 22.5444C98.92 22.4562 99.0025 22.2307 98.9143 22.0407C98.8261 21.8507 98.6005 21.7682 98.4105 21.8564C98.2206 21.9446 98.138 22.1701 98.2263 22.3601C98.3145 22.5501 98.54 22.6326 98.73 22.5444Z" fill="#FF783C"/>
<path d="M100.073 23.2539C100.253 23.1704 100.331 22.9567 100.248 22.7767C100.164 22.5967 99.9503 22.5185 99.7703 22.6021C99.5903 22.6857 99.5121 22.8993 99.5957 23.0793C99.6792 23.2594 99.8929 23.3375 100.073 23.2539Z" fill="#FF783C"/>
</g>
<defs>
<filter id="filter0_d" x="111.695" y="29.2141" width="18.4302" height="17.3897" filterUnits="userSpaceOnUse" color-interpolation-filters="sRGB">
<feFlood flood-opacity="0" result="BackgroundImageFix"/>
<feColorMatrix in="SourceAlpha" type="matrix" values="0 0 0 0 0 0 0 0 0 0 0 0 0 0 0 0 0 0 127 0"/>
<feOffset dy="2.12467"/>
<feGaussianBlur stdDeviation="1.06233"/>
<feColorMatrix type="matrix" values="0 0 0 0 0 0 0 0 0 0 0 0 0 0 0 0 0 0 0.25 0"/>
<feBlend mode="normal" in2="BackgroundImageFix" result="effect1_dropShadow"/>
<feBlend mode="normal" in="SourceGraphic" in2="effect1_dropShadow" result="shape"/>
</filter>
<filter id="filter1_d" x="87.6427" y="0" width="33.8032" height="31.4768" filterUnits="userSpaceOnUse" color-interpolation-filters="sRGB">
<feFlood flood-opacity="0" result="BackgroundImageFix"/>
<feColorMatrix in="SourceAlpha" type="matrix" values="0 0 0 0 0 0 0 0 0 0 0 0 0 0 0 0 0 0 127 0"/>
<feOffset dx="2.12467" dy="3.187"/>
<feGaussianBlur stdDeviation="1.06233"/>
<feColorMatrix type="matrix" values="0 0 0 0 0 0 0 0 0 0 0 0 0 0 0 0 0 0 0.25 0"/>
<feBlend mode="normal" in2="BackgroundImageFix" result="effect1_dropShadow"/>
<feBlend mode="normal" in="SourceGraphic" in2="effect1_dropShadow" result="shape"/>
</filter>
</defs>
</svg>
