<svg width="511" height="333" viewBox="0 0 511 333" fill="none" xmlns="http://www.w3.org/2000/svg">
<rect x="4.72073" y="4.72073" width="501.551" height="323.559" rx="32.8078" fill="white" stroke="#0092A1" stroke-width="8.55854"/>
<path d="M130.877 228.363C132.068 228.363 133.152 228.549 134.131 228.923C135.109 229.296 135.946 229.831 136.642 230.527C137.349 231.223 137.893 232.07 138.277 233.069C138.67 234.058 138.867 235.172 138.867 236.413C138.867 237.664 138.67 238.794 138.277 239.803C137.893 240.801 137.349 241.654 136.642 242.36C135.946 243.056 135.109 243.596 134.131 243.979C133.152 244.352 132.068 244.539 130.877 244.539C129.677 244.539 128.582 244.352 127.594 243.979C126.615 243.596 125.768 243.056 125.051 242.36C124.345 241.654 123.795 240.801 123.402 239.803C123.019 238.794 122.827 237.664 122.827 236.413C122.827 235.172 123.019 234.058 123.402 233.069C123.795 232.07 124.345 231.223 125.051 230.527C125.768 229.831 126.615 229.296 127.594 228.923C128.582 228.549 129.677 228.363 130.877 228.363ZM130.877 241.059C131.957 241.059 132.748 240.68 133.253 239.924C133.767 239.157 134.025 237.997 134.025 236.443C134.025 234.89 133.767 233.735 133.253 232.978C132.748 232.221 131.957 231.843 130.877 231.843C129.767 231.843 128.955 232.221 128.441 232.978C127.926 233.735 127.669 234.89 127.669 236.443C127.669 237.997 127.926 239.157 128.441 239.924C128.955 240.68 129.767 241.059 130.877 241.059ZM147.07 230.3C147.373 230.017 147.685 229.755 148.008 229.513C148.331 229.271 148.674 229.069 149.037 228.908C149.411 228.736 149.809 228.605 150.233 228.514C150.666 228.413 151.136 228.363 151.64 228.363C152.497 228.363 153.254 228.514 153.91 228.817C154.576 229.109 155.135 229.523 155.589 230.058C156.043 230.582 156.386 231.213 156.618 231.949C156.85 232.675 156.966 233.467 156.966 234.325V244.297H152.276V234.325C152.276 233.558 152.099 232.963 151.746 232.539C151.393 232.105 150.873 231.889 150.187 231.889C149.673 231.889 149.189 232 148.735 232.221C148.291 232.433 147.857 232.726 147.433 233.099V244.297H142.742V228.605H145.648C146.233 228.605 146.616 228.867 146.798 229.392L147.07 230.3ZM171.276 234.567C171.276 234.194 171.225 233.831 171.124 233.477C171.034 233.124 170.877 232.812 170.655 232.539C170.443 232.257 170.161 232.03 169.808 231.858C169.455 231.687 169.026 231.601 168.522 231.601C167.634 231.601 166.938 231.858 166.433 232.373C165.929 232.877 165.596 233.609 165.435 234.567H171.276ZM165.374 237.291C165.526 238.602 165.924 239.555 166.57 240.151C167.215 240.736 168.048 241.028 169.066 241.028C169.611 241.028 170.08 240.963 170.474 240.832C170.867 240.7 171.215 240.554 171.518 240.393C171.831 240.231 172.113 240.085 172.365 239.954C172.627 239.823 172.9 239.757 173.182 239.757C173.556 239.757 173.838 239.893 174.03 240.166L175.392 241.845C174.907 242.4 174.383 242.854 173.818 243.207C173.263 243.55 172.688 243.823 172.093 244.024C171.508 244.216 170.918 244.347 170.322 244.418C169.737 244.499 169.177 244.539 168.643 244.539C167.543 244.539 166.509 244.362 165.541 244.009C164.582 243.646 163.74 243.112 163.014 242.405C162.297 241.699 161.727 240.822 161.304 239.772C160.89 238.723 160.683 237.503 160.683 236.11C160.683 235.061 160.86 234.068 161.213 233.129C161.576 232.191 162.091 231.369 162.756 230.663C163.432 229.957 164.244 229.397 165.193 228.983C166.151 228.57 167.23 228.363 168.431 228.363C169.47 228.363 170.418 228.524 171.276 228.847C172.143 229.17 172.885 229.639 173.5 230.254C174.126 230.87 174.61 231.626 174.953 232.524C175.306 233.412 175.482 234.421 175.482 235.551C175.482 235.904 175.467 236.191 175.437 236.413C175.407 236.635 175.351 236.812 175.271 236.943C175.19 237.074 175.079 237.165 174.938 237.215C174.807 237.266 174.635 237.291 174.423 237.291H165.374ZM283.12 232.327C282.979 232.499 282.843 232.635 282.711 232.736C282.58 232.837 282.394 232.887 282.152 232.887C281.92 232.887 281.708 232.832 281.516 232.721C281.334 232.61 281.128 232.489 280.896 232.358C280.664 232.216 280.391 232.09 280.078 231.979C279.766 231.868 279.377 231.813 278.913 231.813C278.338 231.813 277.839 231.919 277.415 232.131C277.002 232.343 276.659 232.645 276.386 233.039C276.114 233.432 275.912 233.916 275.781 234.491C275.65 235.056 275.584 235.697 275.584 236.413C275.584 237.916 275.872 239.071 276.447 239.878C277.032 240.685 277.834 241.089 278.853 241.089C279.398 241.089 279.826 241.023 280.139 240.892C280.462 240.751 280.734 240.6 280.956 240.438C281.178 240.267 281.38 240.11 281.561 239.969C281.753 239.828 281.99 239.757 282.273 239.757C282.646 239.757 282.928 239.893 283.12 240.166L284.482 241.845C283.998 242.4 283.488 242.854 282.954 243.207C282.419 243.55 281.869 243.823 281.304 244.024C280.749 244.216 280.189 244.347 279.624 244.418C279.06 244.499 278.51 244.539 277.975 244.539C277.017 244.539 276.099 244.357 275.221 243.994C274.353 243.631 273.587 243.106 272.921 242.421C272.265 241.724 271.741 240.872 271.347 239.863C270.964 238.854 270.772 237.704 270.772 236.413C270.772 235.283 270.939 234.229 271.272 233.25C271.615 232.262 272.114 231.409 272.77 230.693C273.435 229.967 274.253 229.397 275.221 228.983C276.2 228.57 277.329 228.363 278.611 228.363C279.841 228.363 280.921 228.56 281.849 228.953C282.777 229.346 283.614 229.921 284.361 230.678L283.12 232.327ZM294.788 228.363C295.978 228.363 297.063 228.549 298.041 228.923C299.02 229.296 299.857 229.831 300.553 230.527C301.259 231.223 301.804 232.07 302.188 233.069C302.581 234.058 302.778 235.172 302.778 236.413C302.778 237.664 302.581 238.794 302.188 239.803C301.804 240.801 301.259 241.654 300.553 242.36C299.857 243.056 299.02 243.596 298.041 243.979C297.063 244.352 295.978 244.539 294.788 244.539C293.588 244.539 292.493 244.352 291.504 243.979C290.526 243.596 289.678 243.056 288.962 242.36C288.256 241.654 287.706 240.801 287.313 239.803C286.929 238.794 286.738 237.664 286.738 236.413C286.738 235.172 286.929 234.058 287.313 233.069C287.706 232.07 288.256 231.223 288.962 230.527C289.678 229.831 290.526 229.296 291.504 228.923C292.493 228.549 293.588 228.363 294.788 228.363ZM294.788 241.059C295.867 241.059 296.659 240.68 297.164 239.924C297.678 239.157 297.935 237.997 297.935 236.443C297.935 234.89 297.678 233.735 297.164 232.978C296.659 232.221 295.867 231.843 294.788 231.843C293.678 231.843 292.866 232.221 292.352 232.978C291.837 233.735 291.58 234.89 291.58 236.443C291.58 237.997 291.837 239.157 292.352 239.924C292.866 240.68 293.678 241.059 294.788 241.059ZM310.981 230.3C311.284 230.017 311.596 229.755 311.919 229.513C312.242 229.271 312.585 229.069 312.948 228.908C313.321 228.736 313.72 228.605 314.144 228.514C314.577 228.413 315.046 228.363 315.551 228.363C316.408 228.363 317.165 228.514 317.821 228.817C318.486 229.109 319.046 229.523 319.5 230.058C319.954 230.582 320.297 231.213 320.529 231.949C320.761 232.675 320.877 233.467 320.877 234.325V244.297H316.186V234.325C316.186 233.558 316.01 232.963 315.657 232.539C315.304 232.105 314.784 231.889 314.098 231.889C313.584 231.889 313.099 232 312.645 232.221C312.202 232.433 311.768 232.726 311.344 233.099V244.297H306.653V228.605H309.559C310.144 228.605 310.527 228.867 310.709 229.392L310.981 230.3ZM329.754 230.3C330.057 230.017 330.369 229.755 330.692 229.513C331.015 229.271 331.358 229.069 331.721 228.908C332.095 228.736 332.493 228.605 332.917 228.514C333.351 228.413 333.82 228.363 334.324 228.363C335.181 228.363 335.938 228.514 336.594 228.817C337.26 229.109 337.82 229.523 338.273 230.058C338.727 230.582 339.07 231.213 339.302 231.949C339.534 232.675 339.65 233.467 339.65 234.325V244.297H334.96V234.325C334.96 233.558 334.783 232.963 334.43 232.539C334.077 232.105 333.557 231.889 332.871 231.889C332.357 231.889 331.873 232 331.419 232.221C330.975 232.433 330.541 232.726 330.117 233.099V244.297H325.426V228.605H328.332C328.917 228.605 329.3 228.867 329.482 229.392L329.754 230.3ZM353.96 234.567C353.96 234.194 353.909 233.831 353.808 233.477C353.718 233.124 353.561 232.812 353.339 232.539C353.127 232.257 352.845 232.03 352.492 231.858C352.139 231.687 351.71 231.601 351.206 231.601C350.318 231.601 349.622 231.858 349.117 232.373C348.613 232.877 348.28 233.609 348.119 234.567H353.96ZM348.058 237.291C348.21 238.602 348.608 239.555 349.254 240.151C349.899 240.736 350.732 241.028 351.75 241.028C352.295 241.028 352.764 240.963 353.158 240.832C353.551 240.7 353.899 240.554 354.202 240.393C354.515 240.231 354.797 240.085 355.049 239.954C355.312 239.823 355.584 239.757 355.866 239.757C356.24 239.757 356.522 239.893 356.714 240.166L358.076 241.845C357.591 242.4 357.067 242.854 356.502 243.207C355.947 243.55 355.372 243.823 354.777 244.024C354.192 244.216 353.602 244.347 353.006 244.418C352.421 244.499 351.861 244.539 351.327 244.539C350.227 244.539 349.193 244.362 348.225 244.009C347.266 243.646 346.424 243.112 345.698 242.405C344.981 241.699 344.411 240.822 343.988 239.772C343.574 238.723 343.367 237.503 343.367 236.11C343.367 235.061 343.544 234.068 343.897 233.129C344.26 232.191 344.775 231.369 345.44 230.663C346.116 229.957 346.928 229.397 347.877 228.983C348.835 228.57 349.914 228.363 351.115 228.363C352.154 228.363 353.102 228.524 353.96 228.847C354.827 229.17 355.569 229.639 356.184 230.254C356.81 230.87 357.294 231.626 357.637 232.524C357.99 233.412 358.166 234.421 358.166 235.551C358.166 235.904 358.151 236.191 358.121 236.413C358.091 236.635 358.035 236.812 357.955 236.943C357.874 237.074 357.763 237.165 357.622 237.215C357.491 237.266 357.319 237.291 357.107 237.291H348.058ZM373.558 232.327C373.416 232.499 373.28 232.635 373.149 232.736C373.018 232.837 372.831 232.887 372.589 232.887C372.357 232.887 372.145 232.832 371.954 232.721C371.772 232.61 371.565 232.489 371.333 232.358C371.101 232.216 370.829 232.09 370.516 231.979C370.203 231.868 369.815 231.813 369.351 231.813C368.776 231.813 368.277 231.919 367.853 232.131C367.439 232.343 367.096 232.645 366.824 233.039C366.551 233.432 366.35 233.916 366.219 234.491C366.087 235.056 366.022 235.697 366.022 236.413C366.022 237.916 366.309 239.071 366.884 239.878C367.469 240.685 368.271 241.089 369.29 241.089C369.835 241.089 370.264 241.023 370.577 240.892C370.899 240.751 371.172 240.6 371.394 240.438C371.616 240.267 371.817 240.11 371.999 239.969C372.191 239.828 372.428 239.757 372.71 239.757C373.083 239.757 373.366 239.893 373.558 240.166L374.92 241.845C374.435 242.4 373.926 242.854 373.391 243.207C372.857 243.55 372.307 243.823 371.742 244.024C371.187 244.216 370.627 244.347 370.062 244.418C369.497 244.499 368.947 244.539 368.413 244.539C367.454 244.539 366.536 244.357 365.659 243.994C364.791 243.631 364.024 243.106 363.359 242.421C362.703 241.724 362.178 240.872 361.785 239.863C361.402 238.854 361.21 237.704 361.21 236.413C361.21 235.283 361.376 234.229 361.709 233.25C362.052 232.262 362.552 231.409 363.207 230.693C363.873 229.967 364.69 229.397 365.659 228.983C366.637 228.57 367.767 228.363 369.048 228.363C370.279 228.363 371.358 228.56 372.287 228.953C373.215 229.346 374.052 229.921 374.798 230.678L373.558 232.327ZM383.872 244.539C383.126 244.539 382.465 244.433 381.89 244.221C381.325 243.999 380.846 243.692 380.453 243.298C380.069 242.895 379.777 242.41 379.575 241.845C379.373 241.281 379.272 240.65 379.272 239.954V231.843H377.941C377.699 231.843 377.492 231.768 377.32 231.616C377.149 231.455 377.063 231.223 377.063 230.92V229.089L379.56 228.605L380.483 224.777C380.604 224.292 380.947 224.05 381.512 224.05H383.963V228.635H387.852V231.843H383.963V239.636C383.963 239.999 384.049 240.302 384.221 240.544C384.402 240.776 384.659 240.892 384.992 240.892C385.164 240.892 385.305 240.877 385.416 240.847C385.537 240.806 385.638 240.766 385.719 240.726C385.809 240.675 385.89 240.635 385.961 240.605C386.041 240.564 386.132 240.544 386.233 240.544C386.374 240.544 386.485 240.579 386.566 240.65C386.657 240.711 386.748 240.811 386.838 240.953L388.261 243.177C387.655 243.631 386.975 243.974 386.218 244.206C385.461 244.428 384.68 244.539 383.872 244.539Z" fill="#0B4149"/>
<path d="M182.778 240.514C183.262 241.149 183.782 241.593 184.337 241.845C184.901 242.098 185.532 242.224 186.228 242.224C187.58 242.224 188.624 241.74 189.36 240.771C190.107 239.793 190.48 238.37 190.48 236.504C190.48 235.525 190.394 234.693 190.223 234.007C190.062 233.311 189.819 232.746 189.497 232.312C189.184 231.868 188.795 231.546 188.331 231.344C187.867 231.132 187.343 231.026 186.758 231.026C185.9 231.026 185.154 231.218 184.518 231.601C183.893 231.984 183.313 232.529 182.778 233.235V240.514ZM182.627 231.223C182.949 230.839 183.292 230.491 183.656 230.179C184.029 229.856 184.427 229.583 184.851 229.362C185.275 229.13 185.724 228.953 186.198 228.832C186.682 228.701 187.197 228.635 187.741 228.635C188.619 228.635 189.411 228.807 190.117 229.15C190.833 229.493 191.444 229.997 191.948 230.663C192.452 231.329 192.841 232.151 193.113 233.129C193.396 234.108 193.537 235.233 193.537 236.504C193.537 237.644 193.38 238.703 193.068 239.682C192.765 240.65 192.326 241.492 191.751 242.209C191.186 242.925 190.49 243.49 189.663 243.903C188.846 244.307 187.923 244.509 186.894 244.509C185.976 244.509 185.189 244.357 184.533 244.055C183.878 243.752 183.292 243.328 182.778 242.784V249.457H179.827V228.923H181.598C182.011 228.923 182.269 229.119 182.369 229.513L182.627 231.223ZM201.39 221.962V244.297H198.424V221.962H201.39ZM215.38 237.472C214.18 237.513 213.161 237.609 212.324 237.76C211.486 237.901 210.805 238.093 210.281 238.335C209.756 238.577 209.378 238.864 209.146 239.197C208.914 239.52 208.798 239.883 208.798 240.287C208.798 240.67 208.858 241.003 208.979 241.286C209.11 241.558 209.282 241.785 209.494 241.967C209.716 242.138 209.973 242.264 210.266 242.345C210.558 242.426 210.876 242.466 211.219 242.466C211.673 242.466 212.086 242.421 212.46 242.33C212.843 242.239 213.201 242.113 213.534 241.951C213.867 241.78 214.185 241.573 214.487 241.331C214.79 241.089 215.088 240.811 215.38 240.499V237.472ZM206.725 231.071C207.582 230.254 208.51 229.644 209.509 229.24C210.518 228.837 211.622 228.635 212.823 228.635C213.701 228.635 214.477 228.781 215.153 229.074C215.829 229.356 216.399 229.755 216.863 230.269C217.327 230.784 217.675 231.399 217.907 232.116C218.149 232.832 218.27 233.624 218.27 234.491V244.297H216.954C216.661 244.297 216.439 244.251 216.288 244.161C216.137 244.06 216.016 243.878 215.925 243.616L215.607 242.269C215.214 242.632 214.825 242.955 214.442 243.238C214.059 243.51 213.655 243.747 213.231 243.949C212.818 244.141 212.374 244.287 211.9 244.388C211.426 244.489 210.901 244.539 210.326 244.539C209.721 244.539 209.151 244.458 208.616 244.297C208.092 244.125 207.633 243.868 207.239 243.525C206.846 243.182 206.533 242.753 206.301 242.239C206.079 241.724 205.968 241.124 205.968 240.438C205.968 239.833 206.129 239.253 206.452 238.698C206.785 238.133 207.32 237.629 208.056 237.185C208.803 236.741 209.771 236.378 210.962 236.095C212.162 235.813 213.635 235.651 215.38 235.611V234.491C215.38 233.331 215.133 232.464 214.639 231.889C214.144 231.314 213.418 231.026 212.46 231.026C211.814 231.026 211.269 231.107 210.825 231.268C210.392 231.43 210.013 231.611 209.691 231.813C209.378 232.005 209.1 232.181 208.858 232.343C208.626 232.504 208.384 232.585 208.132 232.585C207.93 232.585 207.754 232.529 207.602 232.418C207.461 232.307 207.345 232.176 207.254 232.025L206.725 231.071ZM226.503 231.056C226.836 230.703 227.184 230.38 227.547 230.088C227.91 229.795 228.294 229.548 228.697 229.346C229.111 229.135 229.55 228.973 230.014 228.862C230.488 228.741 230.992 228.681 231.527 228.681C232.374 228.681 233.116 228.822 233.751 229.104C234.397 229.387 234.937 229.785 235.37 230.3C235.804 230.804 236.132 231.414 236.354 232.131C236.576 232.847 236.687 233.639 236.687 234.506V244.297H233.721V234.506C233.721 233.407 233.469 232.554 232.964 231.949C232.46 231.334 231.688 231.026 230.649 231.026C229.893 231.026 229.181 231.208 228.516 231.571C227.86 231.924 227.249 232.408 226.685 233.023V244.297H223.734V228.923H225.504C225.918 228.923 226.175 229.119 226.276 229.513L226.503 231.056ZM252.366 234.9C252.366 234.315 252.28 233.775 252.109 233.281C251.947 232.786 251.705 232.358 251.382 231.995C251.059 231.631 250.666 231.349 250.202 231.147C249.738 230.945 249.203 230.844 248.598 230.844C247.357 230.844 246.379 231.203 245.662 231.919C244.956 232.635 244.507 233.629 244.316 234.9H252.366ZM254.802 242.103C254.439 242.526 254.02 242.895 253.546 243.207C253.072 243.51 252.568 243.757 252.033 243.949C251.498 244.141 250.943 244.282 250.368 244.373C249.803 244.463 249.244 244.509 248.689 244.509C247.629 244.509 246.646 244.332 245.738 243.979C244.84 243.616 244.058 243.091 243.392 242.405C242.737 241.709 242.222 240.852 241.849 239.833C241.486 238.804 241.304 237.624 241.304 236.292C241.304 235.223 241.471 234.229 241.804 233.311C242.136 232.383 242.611 231.576 243.226 230.89C243.851 230.204 244.613 229.664 245.511 229.271C246.409 228.877 247.418 228.681 248.537 228.681C249.476 228.681 250.338 228.837 251.125 229.15C251.922 229.452 252.608 229.896 253.183 230.481C253.758 231.066 254.207 231.788 254.53 232.645C254.863 233.503 255.029 234.481 255.029 235.581C255.029 236.035 254.979 236.342 254.878 236.504C254.777 236.655 254.59 236.731 254.318 236.731H244.24C244.27 237.649 244.401 238.451 244.633 239.137C244.865 239.813 245.183 240.378 245.587 240.832C246 241.286 246.489 241.624 247.054 241.845C247.619 242.067 248.25 242.178 248.946 242.178C249.602 242.178 250.167 242.103 250.641 241.951C251.125 241.8 251.539 241.639 251.882 241.467C252.235 241.286 252.527 241.119 252.759 240.968C253.001 240.817 253.213 240.741 253.395 240.741C253.637 240.741 253.823 240.832 253.955 241.013L254.802 242.103ZM264.408 244.539C263.167 244.539 262.208 244.191 261.532 243.495C260.867 242.799 260.534 241.805 260.534 240.514V231.314H258.748C258.577 231.314 258.43 231.263 258.309 231.162C258.198 231.051 258.143 230.89 258.143 230.678V229.483L260.64 229.135L261.305 224.55C261.346 224.378 261.422 224.247 261.532 224.156C261.654 224.055 261.805 224.005 261.986 224.005H263.485V229.165H267.843V231.314H263.485V240.317C263.485 240.922 263.631 241.376 263.923 241.679C264.226 241.972 264.609 242.118 265.073 242.118C265.346 242.118 265.578 242.083 265.769 242.012C265.971 241.941 266.143 241.866 266.284 241.785C266.425 241.694 266.546 241.613 266.647 241.543C266.748 241.472 266.839 241.437 266.919 241.437C267.02 241.437 267.096 241.462 267.146 241.513C267.207 241.553 267.268 241.624 267.328 241.724L268.206 243.147C267.721 243.591 267.146 243.934 266.481 244.176C265.815 244.418 265.124 244.539 264.408 244.539Z" fill="#177288"/>
<path d="M300.214 148.701C300.214 155.479 294.739 160.973 287.924 160.973C281.157 160.973 275.67 155.477 275.67 148.701C275.67 141.91 281.158 136.415 287.924 136.415C294.733 136.415 300.214 141.917 300.214 148.701Z" stroke="#0B4149" stroke-width="2.83726"/>
<path d="M271.451 171.012L271.386 171.146L258.349 197.837L257.926 198.701L256.967 198.629C256.82 198.618 256.695 198.593 256.604 198.57C256.542 198.555 256.479 198.537 256.442 198.527H251.624C251.585 198.538 251.521 198.557 251.456 198.572C251.362 198.595 251.226 198.623 251.065 198.631L250.128 198.68L249.716 197.837L236.679 171.151L236.613 171.016L236.577 170.87C235.86 167.979 233.59 166.041 231.111 166.041H209.14H209.14C206.151 166.04 203.437 168.844 203.437 172.643V213.669H236.818V190.993L239.485 190.318L247.394 204.94L247.463 205.068L247.505 205.206C248.128 207.278 249.755 208.578 251.52 208.578H256.546C258.312 208.578 259.943 207.276 260.571 205.204L260.612 205.067L260.68 204.941L268.585 190.318L271.252 190.993V213.669H304.633L304.633 172.644L304.633 172.642M271.451 171.012L270.111 170.524C270.955 167.139 273.699 164.622 276.959 164.622H298.916C302.847 164.622 306.046 168.224 306.051 172.642H304.633M271.451 171.012L271.487 170.867C272.208 167.976 274.483 166.04 276.959 166.04H298.916C301.911 166.04 304.628 168.845 304.633 172.642M271.451 171.012L304.633 172.642M256.382 198.51C256.381 198.51 256.383 198.51 256.386 198.511C256.384 198.51 256.382 198.51 256.382 198.51Z" stroke="#0B4149" stroke-width="2.83726"/>
<path d="M232.391 148.7V148.701C232.391 155.481 226.905 160.973 220.138 160.973C213.331 160.973 207.847 155.474 207.847 148.701C207.847 141.913 213.332 136.415 220.138 136.415C226.908 136.415 232.395 141.911 232.391 148.7Z" stroke="#0B4149" stroke-width="2.83726"/>
<g clip-path="url(#clip0)">
<path d="M269.329 126.408C269.329 117.961 262.482 111.114 254.035 111.114C245.588 111.114 238.74 117.961 238.74 126.408C238.74 132.908 242.795 138.459 248.512 140.674V142.723H259.558V140.674C265.275 138.459 269.329 132.908 269.329 126.408Z" fill="white"/>
<path d="M259.558 146.121H248.511C247.573 146.121 246.812 145.361 246.812 144.422C246.812 143.483 247.573 142.723 248.511 142.723H259.558C260.496 142.723 261.257 143.483 261.257 144.422C261.257 145.361 260.496 146.121 259.558 146.121Z" fill="#B2F0BF"/>
<path d="M254.035 152.919C250.984 152.919 248.512 150.446 248.512 147.396V146.121H259.558V147.396C259.558 150.446 257.085 152.919 254.035 152.919Z" fill="#27AE60"/>
<path d="M254.208 133.203C253.195 129.244 256.793 125.645 260.753 126.659C261.766 130.618 258.168 134.216 254.208 133.203Z" fill="#27AE60"/>
<path d="M253.862 133.203C249.902 134.216 246.304 130.618 247.317 126.659C251.276 125.645 254.875 129.244 253.862 133.203Z" fill="#27AE60"/>
<path d="M268.993 129.724C268.542 129.598 268.073 129.861 267.946 130.313C266.726 134.668 263.476 138.245 259.251 139.882C258.924 140.009 258.708 140.324 258.708 140.674V141.873H254.885V134.187C255.112 134.212 255.339 134.225 255.566 134.225C257.19 134.225 258.755 133.587 259.946 132.396C261.517 130.825 262.127 128.601 261.576 126.448C261.499 126.147 261.264 125.912 260.963 125.835C258.81 125.285 256.586 125.894 255.015 127.465C254.629 127.851 254.302 128.276 254.035 128.729C253.768 128.276 253.441 127.851 253.055 127.465C251.484 125.894 249.26 125.284 247.107 125.835C246.806 125.912 246.571 126.147 246.494 126.448C245.943 128.601 246.552 130.825 248.124 132.396C249.315 133.587 250.879 134.225 252.504 134.225C252.73 134.225 252.958 134.212 253.185 134.187V141.873H249.361V140.674C249.361 140.324 249.146 140.009 248.819 139.882C243.299 137.744 239.59 132.329 239.59 126.408C239.59 118.443 246.07 111.963 254.035 111.963C260.72 111.963 266.492 116.493 268.071 122.979C268.182 123.435 268.642 123.715 269.097 123.604C269.553 123.493 269.833 123.034 269.722 122.578C268.881 119.124 266.879 115.997 264.082 113.771C261.2 111.477 257.726 110.264 254.035 110.264C245.133 110.264 237.891 117.506 237.891 126.408C237.891 129.73 238.892 132.92 240.785 135.634C242.523 138.125 244.892 140.056 247.662 141.245V142.019C246.673 142.37 245.963 143.314 245.963 144.422C245.963 145.53 246.673 146.474 247.662 146.825V147.396C247.662 150.91 250.521 153.769 254.035 153.769C257.549 153.769 260.408 150.91 260.408 147.396V146.825C261.397 146.474 262.107 145.53 262.107 144.422C262.107 143.314 261.397 142.37 260.408 142.019V141.245C264.864 139.327 268.272 135.451 269.582 130.771C269.709 130.32 269.445 129.851 268.993 129.724ZM256.216 128.667C257.235 127.648 258.63 127.186 260.03 127.381C260.225 128.781 259.763 130.176 258.744 131.195C257.726 132.213 256.33 132.676 254.93 132.481C254.735 131.081 255.198 129.686 256.216 128.667ZM253.14 132.481C251.739 132.676 250.344 132.213 249.326 131.195C248.307 130.176 247.844 128.781 248.04 127.381C249.439 127.186 250.835 127.648 251.853 128.667C252.872 129.686 253.335 131.081 253.14 132.481ZM258.708 147.396C258.708 149.973 256.612 152.069 254.035 152.069C251.458 152.069 249.362 149.973 249.362 147.396V146.971H258.708V147.396ZM259.558 145.272H248.512C248.043 145.272 247.662 144.891 247.662 144.422C247.662 143.953 248.043 143.572 248.512 143.572H259.558C260.027 143.572 260.408 143.953 260.408 144.422C260.408 144.891 260.027 145.272 259.558 145.272Z" fill="#0B4149"/>
<path d="M269.33 125.559C268.861 125.559 268.48 125.939 268.48 126.409L268.48 126.482C268.478 126.951 268.856 127.333 269.326 127.335C269.327 127.335 269.328 127.335 269.33 127.335C269.797 127.335 270.177 126.958 270.179 126.49L270.18 126.409C270.18 125.939 269.799 125.559 269.33 125.559Z" fill="#0B4149"/>
<path d="M254.884 121.288V115.702C254.884 115.233 254.504 114.853 254.034 114.853C253.565 114.853 253.185 115.233 253.185 115.702V121.288C253.185 121.758 253.565 122.138 254.034 122.138C254.504 122.138 254.884 121.758 254.884 121.288Z" fill="#0B4149"/>
<path d="M247.495 119.068C247.163 119.4 247.163 119.938 247.495 120.27L249.116 121.889C249.282 122.055 249.499 122.138 249.717 122.138C249.934 122.138 250.152 122.055 250.318 121.889C250.649 121.557 250.649 121.019 250.317 120.687L248.696 119.068C248.364 118.736 247.826 118.736 247.495 119.068Z" fill="#0B4149"/>
<path d="M259.373 119.07L257.65 120.795C257.318 121.127 257.319 121.665 257.65 121.996C257.816 122.162 258.034 122.245 258.251 122.245C258.469 122.245 258.686 122.162 258.852 121.996L260.575 120.271C260.907 119.939 260.907 119.401 260.575 119.07C260.243 118.738 259.705 118.738 259.373 119.07Z" fill="#0B4149"/>
<path d="M254.046 125.48C254.269 125.48 254.489 125.39 254.647 125.231C254.805 125.073 254.896 124.855 254.896 124.631C254.896 124.407 254.805 124.188 254.647 124.03C254.489 123.872 254.269 123.781 254.046 123.781C253.823 123.781 253.603 123.872 253.445 124.03C253.286 124.188 253.196 124.407 253.196 124.631C253.196 124.855 253.286 125.073 253.445 125.231C253.603 125.39 253.823 125.48 254.046 125.48Z" fill="#0B4149"/>
</g>
<path fill-rule="evenodd" clip-rule="evenodd" d="M255.5 106.051C304.86 106.051 344.875 155.053 344.875 215.5H349C349 152.263 307.139 101 255.5 101C203.861 101 162 152.263 162 215.5H166.125C166.125 155.053 206.14 106.051 255.5 106.051Z" fill="#177288"/>
<defs>
<clipPath id="clip0">
<rect width="43.5047" height="43.5047" fill="white" transform="translate(232.283 110.264)"/>
</clipPath>
</defs>
</svg>
