<svg width="35" height="39" viewBox="0 0 35 39" fill="none" xmlns="http://www.w3.org/2000/svg">
<path d="M14.7461 7.85938C14.7461 6.24385 13.4319 4.92969 11.8164 4.92969C10.2009 4.92969 8.88672 6.24385 8.88672 7.85938C8.88672 9.4749 10.2009 10.7891 11.8164 10.7891C13.4319 10.7891 14.7461 9.4749 14.7461 7.85938ZM11.8164 9.32422C11.0086 9.32422 10.3516 8.66714 10.3516 7.85938C10.3516 7.05161 11.0086 6.39453 11.8164 6.39453C12.6242 6.39453 13.2812 7.05161 13.2812 7.85938C13.2812 8.66714 12.6242 9.32422 11.8164 9.32422Z" fill="#F9FAFC"/>
<path d="M16.2109 15.1836C16.2109 12.7605 14.2395 10.7891 11.8164 10.7891C9.39331 10.7891 7.42188 12.7605 7.42188 15.1836V16.6484H16.2109V15.1836ZM8.88672 15.1836C8.88672 13.5681 10.2009 12.2539 11.8164 12.2539C13.4319 12.2539 14.7461 13.5681 14.7461 15.1836H8.88672Z" fill="#F9FAFC"/>
<path d="M3.66211 27H17.6758C19.2913 27 20.6055 25.6858 20.6055 24.0703C20.6055 23.1031 20.6055 7.11055 20.6055 6.39453H25V4.92969C25 3.31416 23.6858 2 22.0703 2H6.5918C4.57249 2 2.92969 3.6428 2.92969 5.66211V22.6055H0V23.3379C0 25.3572 1.6428 27 3.66211 27ZM23.5352 4.92969H20.6055C20.6055 4.12193 21.2626 3.46484 22.0703 3.46484C22.8781 3.46484 23.5352 4.12193 23.5352 4.92969ZM4.39453 5.66211C4.39453 4.45056 5.38025 3.46427 6.5918 3.46427H19.5347C19.2846 3.89571 19.1406 4.3962 19.1406 4.92969V24.0703C19.1406 24.8781 18.4835 25.5352 17.6758 25.5352C16.868 25.5352 16.2109 24.8781 16.2109 24.0703V22.6055H4.39453V5.66211ZM14.7461 24.0703C14.7461 24.6036 14.8893 25.1041 15.1392 25.5352H3.66211C2.70729 25.5352 1.89266 24.9229 1.59035 24.0703H14.7461Z" fill="#F9FAFC"/>
<path d="M5.85938 18.1133H17.6758V19.5781H5.85938V18.1133Z" fill="#F9FAFC"/>
</svg>
