<svg width="511" height="333" viewBox="0 0 511 333" fill="none" xmlns="http://www.w3.org/2000/svg">
<rect x="4.72" y="4.72" width="501.553" height="323.56" rx="13.8088" fill="white" stroke="#F2994A" stroke-width="8.56"/>
<g filter="url(#filter0_d)">
<mask id="path-2-inside-1" fill="white">
<path fill-rule="evenodd" clip-rule="evenodd" d="M254.585 75.1081C246.134 74.1472 237.912 85.4359 236.219 100.322C235.403 107.495 237.453 104.293 240.742 99.1561C244.279 93.6316 249.248 85.8692 253.627 86.3671C258.069 86.8722 261.018 95.7752 263.063 101.947C264.909 107.518 266.018 110.864 266.821 103.802C268.513 88.9156 263.035 76.069 254.585 75.1081ZM271.621 140.83C261.228 127.48 252.479 124.752 236.637 126.561C231.416 127.158 226.471 129.094 221.904 131.646C208.4 139.193 199.376 142.509 186.069 141.069C167.581 138.931 165.634 128.948 176.749 124.075C180.685 122.349 184.548 122.789 187.766 125.659C187.993 125.861 188.235 126.04 188.498 126.183C192.209 128.213 191.535 122.316 185.72 118.69C181.169 115.851 175.3 116.644 170.419 118.807C168.466 119.673 166.876 120.602 165.56 121.638C158.93 126.858 160.45 137.046 164.306 144.573C171.743 159.088 181.092 164.222 197.548 169.283C224.21 176.822 238.171 177.591 261.175 173.965C277.939 190.129 289.816 197.506 315.981 206.622C332.363 211.915 342.967 213.071 357.384 205.446C364.86 201.492 371.948 194.018 369.511 185.94C369.027 184.336 368.258 182.663 367.154 180.833C364.397 176.262 360.044 172.247 354.688 171.961C347.844 171.597 343.91 176.041 348.114 176.507C348.412 176.54 348.713 176.532 349.014 176.497C353.297 175.992 356.714 177.847 358.948 181.518C365.258 191.885 357.937 198.946 341.566 190.094C329.84 183.641 324.35 175.75 317.615 161.822C315.338 157.112 312.398 152.689 308.463 149.207C296.523 138.638 287.792 135.855 271.621 140.83ZM161.936 215.822H188.319V224.437H180.512V249.475H169.743V224.437H161.936V215.822ZM190.411 224.751C189.902 226.965 189.648 229.612 189.648 232.693C189.648 235.625 189.887 238.198 190.366 240.411C190.844 242.595 191.682 244.419 192.878 245.885C194.105 247.351 195.735 248.458 197.769 249.206C199.833 249.924 202.421 250.283 205.532 250.283C208.643 250.283 211.215 249.924 213.249 249.206C215.313 248.458 216.944 247.351 218.14 245.885C219.367 244.419 220.219 242.595 220.698 240.411C221.176 238.198 221.416 235.625 221.416 232.693C221.416 229.612 221.147 226.965 220.608 224.751C220.1 222.508 219.217 220.668 217.961 219.232C216.734 217.797 215.104 216.735 213.07 216.047C211.066 215.359 208.553 215.015 205.532 215.015C202.54 215.015 200.028 215.359 197.994 216.047C195.96 216.735 194.314 217.797 193.058 219.232C191.831 220.668 190.949 222.508 190.411 224.751ZM201.224 241.084V227.085C201.224 225.858 201.553 225.081 202.211 224.751C202.869 224.393 203.916 224.213 205.352 224.213H209.884V238.212C209.884 239.439 209.555 240.232 208.897 240.591C208.269 240.92 207.207 241.084 205.711 241.084H201.224ZM244.921 249.475H255.062V215.822H244.293V230.36H244.069C244.039 229.672 243.979 229.119 243.889 228.7C243.8 228.281 243.68 227.967 243.53 227.758L235.319 215.822H225.179V249.475H235.947V234.937H236.172C236.202 235.625 236.261 236.178 236.351 236.597C236.441 237.016 236.561 237.33 236.71 237.539L244.921 249.475ZM267.452 240.321L257.76 215.822H269.651L272.612 227.668H273.016L276.022 215.822H287.913L278.221 240.321V249.475H267.452V240.321ZM291.529 109.991C297.877 96.4197 309.269 88.3396 316.972 91.9432C324.676 95.5467 325.775 109.469 319.427 123.04C316.356 129.605 316.271 126.184 316.129 120.494C315.978 114.422 315.762 105.766 311.785 103.906C307.873 102.076 301.074 107.173 296.16 110.856C291.397 114.427 288.405 116.67 291.529 109.991Z"/>
</mask>
<path fill-rule="evenodd" clip-rule="evenodd" d="M254.585 75.1081C246.134 74.1472 237.912 85.4359 236.219 100.322C235.403 107.495 237.453 104.293 240.742 99.1561C244.279 93.6316 249.248 85.8692 253.627 86.3671C258.069 86.8722 261.018 95.7752 263.063 101.947C264.909 107.518 266.018 110.864 266.821 103.802C268.513 88.9156 263.035 76.069 254.585 75.1081ZM271.621 140.83C261.228 127.48 252.479 124.752 236.637 126.561C231.416 127.158 226.471 129.094 221.904 131.646C208.4 139.193 199.376 142.509 186.069 141.069C167.581 138.931 165.634 128.948 176.749 124.075C180.685 122.349 184.548 122.789 187.766 125.659C187.993 125.861 188.235 126.04 188.498 126.183C192.209 128.213 191.535 122.316 185.72 118.69C181.169 115.851 175.3 116.644 170.419 118.807C168.466 119.673 166.876 120.602 165.56 121.638C158.93 126.858 160.45 137.046 164.306 144.573C171.743 159.088 181.092 164.222 197.548 169.283C224.21 176.822 238.171 177.591 261.175 173.965C277.939 190.129 289.816 197.506 315.981 206.622C332.363 211.915 342.967 213.071 357.384 205.446C364.86 201.492 371.948 194.018 369.511 185.94C369.027 184.336 368.258 182.663 367.154 180.833C364.397 176.262 360.044 172.247 354.688 171.961C347.844 171.597 343.91 176.041 348.114 176.507C348.412 176.54 348.713 176.532 349.014 176.497C353.297 175.992 356.714 177.847 358.948 181.518C365.258 191.885 357.937 198.946 341.566 190.094C329.84 183.641 324.35 175.75 317.615 161.822C315.338 157.112 312.398 152.689 308.463 149.207C296.523 138.638 287.792 135.855 271.621 140.83ZM161.936 215.822H188.319V224.437H180.512V249.475H169.743V224.437H161.936V215.822ZM190.411 224.751C189.902 226.965 189.648 229.612 189.648 232.693C189.648 235.625 189.887 238.198 190.366 240.411C190.844 242.595 191.682 244.419 192.878 245.885C194.105 247.351 195.735 248.458 197.769 249.206C199.833 249.924 202.421 250.283 205.532 250.283C208.643 250.283 211.215 249.924 213.249 249.206C215.313 248.458 216.944 247.351 218.14 245.885C219.367 244.419 220.219 242.595 220.698 240.411C221.176 238.198 221.416 235.625 221.416 232.693C221.416 229.612 221.147 226.965 220.608 224.751C220.1 222.508 219.217 220.668 217.961 219.232C216.734 217.797 215.104 216.735 213.07 216.047C211.066 215.359 208.553 215.015 205.532 215.015C202.54 215.015 200.028 215.359 197.994 216.047C195.96 216.735 194.314 217.797 193.058 219.232C191.831 220.668 190.949 222.508 190.411 224.751ZM201.224 241.084V227.085C201.224 225.858 201.553 225.081 202.211 224.751C202.869 224.393 203.916 224.213 205.352 224.213H209.884V238.212C209.884 239.439 209.555 240.232 208.897 240.591C208.269 240.92 207.207 241.084 205.711 241.084H201.224ZM244.921 249.475H255.062V215.822H244.293V230.36H244.069C244.039 229.672 243.979 229.119 243.889 228.7C243.8 228.281 243.68 227.967 243.53 227.758L235.319 215.822H225.179V249.475H235.947V234.937H236.172C236.202 235.625 236.261 236.178 236.351 236.597C236.441 237.016 236.561 237.33 236.71 237.539L244.921 249.475ZM267.452 240.321L257.76 215.822H269.651L272.612 227.668H273.016L276.022 215.822H287.913L278.221 240.321V249.475H267.452V240.321ZM291.529 109.991C297.877 96.4197 309.269 88.3396 316.972 91.9432C324.676 95.5467 325.775 109.469 319.427 123.04C316.356 129.605 316.271 126.184 316.129 120.494C315.978 114.422 315.762 105.766 311.785 103.906C307.873 102.076 301.074 107.173 296.16 110.856C291.397 114.427 288.405 116.67 291.529 109.991Z" fill="#475E76"/>
<path d="M236.219 100.322L234.828 100.164L234.828 100.164L236.219 100.322ZM254.585 75.1081L254.427 76.4989L254.427 76.4989L254.585 75.1081ZM240.742 99.1561L239.563 98.4013L239.563 98.4013L240.742 99.1561ZM253.627 86.3671L253.469 87.7579L253.469 87.7579L253.627 86.3671ZM263.063 101.947L264.392 101.507L264.392 101.507L263.063 101.947ZM266.821 103.802L268.212 103.96L268.212 103.96L266.821 103.802ZM236.637 126.561L236.796 127.952L236.796 127.952L236.637 126.561ZM271.621 140.83L270.517 141.69L271.11 142.452L272.033 142.168L271.621 140.83ZM221.904 131.646L221.222 130.424L221.222 130.424L221.904 131.646ZM186.069 141.069L185.908 142.459L185.918 142.461L186.069 141.069ZM176.749 124.075L176.186 122.793L176.186 122.793L176.749 124.075ZM187.766 125.659L188.698 124.614L188.698 124.614L187.766 125.659ZM188.498 126.183L187.826 127.412L187.826 127.412L188.498 126.183ZM185.72 118.69L186.461 117.502L185.72 118.69ZM170.419 118.807L169.852 117.527L169.852 117.527L170.419 118.807ZM165.56 121.638L166.426 122.738L166.426 122.738L165.56 121.638ZM164.306 144.573L165.552 143.934L165.552 143.934L164.306 144.573ZM197.548 169.283L197.136 170.621L197.151 170.626L197.167 170.63L197.548 169.283ZM261.175 173.965L262.146 172.957L261.645 172.474L260.957 172.582L261.175 173.965ZM315.981 206.622L315.521 207.944L315.536 207.949L315.551 207.954L315.981 206.622ZM357.384 205.446L358.039 206.683L358.039 206.683L357.384 205.446ZM369.511 185.94L370.851 185.535L370.851 185.535L369.511 185.94ZM367.154 180.833L365.956 181.556L365.956 181.556L367.154 180.833ZM354.688 171.961L354.613 173.359L354.613 173.359L354.688 171.961ZM348.114 176.507L347.96 177.898L347.96 177.898L348.114 176.507ZM349.014 176.497L348.85 175.107L348.85 175.107L349.014 176.497ZM358.948 181.518L357.753 182.246L357.753 182.246L358.948 181.518ZM341.566 190.094L340.892 191.32L340.901 191.325L341.566 190.094ZM317.615 161.822L318.875 161.212L318.875 161.212L317.615 161.822ZM308.463 149.207L309.391 148.158L309.391 148.158L308.463 149.207ZM188.319 215.822H189.719V214.423H188.319V215.822ZM161.936 215.822V214.423H160.536V215.822H161.936ZM188.319 224.437V225.837H189.719V224.437H188.319ZM180.512 224.437V223.038H179.112V224.437H180.512ZM180.512 249.475V250.875H181.912V249.475H180.512ZM169.743 249.475H168.343V250.875H169.743V249.475ZM169.743 224.437H171.143V223.038H169.743V224.437ZM161.936 224.437H160.536V225.837H161.936V224.437ZM190.411 224.751L189.049 224.425L189.046 224.438L190.411 224.751ZM190.366 240.411L188.998 240.707L188.998 240.711L190.366 240.411ZM192.878 245.885L191.794 246.77L191.799 246.777L191.805 246.784L192.878 245.885ZM197.769 249.206L197.286 250.519L197.298 250.524L197.309 250.528L197.769 249.206ZM213.249 249.206L213.715 250.526L213.726 250.522L213.249 249.206ZM218.14 245.885L217.067 244.987L217.061 244.994L217.056 245L218.14 245.885ZM220.698 240.411L222.065 240.711L222.066 240.707L220.698 240.411ZM220.608 224.751L219.243 225.061L219.245 225.072L219.248 225.082L220.608 224.751ZM217.961 219.232L216.896 220.142L216.902 220.148L216.907 220.154L217.961 219.232ZM213.07 216.047L212.615 217.371L212.621 217.373L213.07 216.047ZM193.058 219.232L192.005 218.311L191.999 218.317L191.994 218.323L193.058 219.232ZM201.224 241.084H199.825V242.484H201.224V241.084ZM202.211 224.751L202.837 226.003L202.86 225.992L202.882 225.98L202.211 224.751ZM209.884 224.213H211.284V222.813H209.884V224.213ZM208.897 240.591L209.547 241.831L209.557 241.825L209.567 241.819L208.897 240.591ZM255.062 249.475V250.875H256.462V249.475H255.062ZM244.921 249.475L243.768 250.268L244.185 250.875H244.921V249.475ZM255.062 215.822H256.462V214.423H255.062V215.822ZM244.293 215.822V214.423H242.893V215.822H244.293ZM244.293 230.36V231.76H245.693V230.36H244.293ZM244.069 230.36L242.67 230.421L242.729 231.76H244.069V230.36ZM243.889 228.7L245.258 228.407L245.258 228.407L243.889 228.7ZM243.53 227.758L242.377 228.551L242.384 228.561L242.391 228.571L243.53 227.758ZM235.319 215.822L236.472 215.029L236.055 214.423H235.319V215.822ZM225.179 215.822V214.423H223.779V215.822H225.179ZM225.179 249.475H223.779V250.875H225.179V249.475ZM235.947 249.475V250.875H237.347V249.475H235.947ZM235.947 234.937V233.537H234.548V234.937H235.947ZM236.172 234.937L237.57 234.876L237.512 233.537H236.172V234.937ZM236.351 236.597L237.72 236.304L237.72 236.304L236.351 236.597ZM236.71 237.539L237.863 236.746L237.856 236.736L237.849 236.726L236.71 237.539ZM257.76 215.822V214.423H255.701L256.459 216.337L257.76 215.822ZM267.452 240.321H268.852V240.055L268.754 239.806L267.452 240.321ZM269.651 215.822L271.009 215.483L270.744 214.423H269.651V215.822ZM272.612 227.668L271.254 228.008L271.519 229.068H272.612V227.668ZM273.016 227.668V229.068H274.105L274.373 228.012L273.016 227.668ZM276.022 215.822V214.423H274.933L274.665 215.478L276.022 215.822ZM287.913 215.822L289.214 216.337L289.972 214.423H287.913V215.822ZM278.221 240.321L276.919 239.806L276.821 240.055V240.321H278.221ZM278.221 249.475V250.875H279.621V249.475H278.221ZM267.452 249.475H266.052V250.875H267.452V249.475ZM316.972 91.9432L316.379 93.2111L316.379 93.2111L316.972 91.9432ZM291.529 109.991L290.261 109.397L290.261 109.397L291.529 109.991ZM319.427 123.04L318.159 122.447L318.159 122.447L319.427 123.04ZM316.129 120.494L317.528 120.459L317.528 120.459L316.129 120.494ZM311.785 103.906L311.192 105.174L311.192 105.174L311.785 103.906ZM296.16 110.856L295.321 109.736L295.321 109.736L296.16 110.856ZM237.61 100.48C238.434 93.2328 240.843 86.93 243.999 82.5966C247.184 78.2247 250.921 76.1002 254.427 76.4989L254.743 73.7173C249.799 73.1551 245.199 76.1945 241.736 80.9483C238.246 85.7406 235.697 92.5252 234.828 100.164L237.61 100.48ZM239.563 98.4013C238.735 99.6946 238.009 100.828 237.389 101.707C237.08 102.146 236.812 102.499 236.585 102.765C236.344 103.048 236.207 103.162 236.167 103.189C236.072 103.252 236.502 102.92 237.074 103.219C237.539 103.463 237.542 103.861 237.49 103.607C237.412 103.225 237.404 102.29 237.61 100.48L234.828 100.164C234.626 101.941 234.568 103.295 234.748 104.169C234.825 104.544 235.034 105.311 235.775 105.699C236.623 106.144 237.4 105.731 237.716 105.521C238.086 105.275 238.424 104.923 238.716 104.582C239.021 104.223 239.344 103.792 239.677 103.32C240.341 102.379 241.104 101.186 241.921 99.9108L239.563 98.4013ZM253.785 84.9763C252.242 84.8009 250.781 85.3671 249.497 86.2072C248.208 87.0509 246.969 88.2538 245.812 89.5852C243.5 92.2458 241.318 95.6594 239.563 98.4013L241.921 99.9108C243.702 97.1283 245.773 93.8985 247.925 91.4212C249 90.1837 250.046 89.194 251.03 88.5497C252.02 87.9018 252.822 87.6844 253.469 87.7579L253.785 84.9763ZM264.392 101.507C263.377 98.4438 262.097 94.5707 260.493 91.4001C259.69 89.8138 258.772 88.331 257.712 87.1928C256.656 86.0586 255.353 85.1546 253.785 84.9763L253.469 87.7579C254.122 87.8322 254.853 88.2305 255.663 89.1005C256.47 89.9665 257.249 91.1898 257.995 92.6639C259.487 95.6141 260.705 99.2785 261.735 102.387L264.392 101.507ZM265.43 103.644C265.228 105.422 265.022 106.351 264.861 106.738C264.827 106.821 264.819 106.818 264.853 106.773C264.884 106.732 265.015 106.573 265.277 106.475C265.578 106.363 265.876 106.397 266.092 106.487C266.186 106.526 266.253 106.57 266.291 106.599C266.33 106.628 266.351 106.65 266.355 106.655C266.361 106.662 266.337 106.637 266.286 106.555C266.238 106.477 266.178 106.369 266.108 106.226C265.966 105.938 265.805 105.556 265.624 105.082C265.262 104.13 264.857 102.91 264.392 101.507L261.735 102.387C262.193 103.77 262.619 105.057 263.008 106.079C263.203 106.591 263.399 107.063 263.596 107.462C263.78 107.837 264.014 108.25 264.311 108.568C264.571 108.846 265.29 109.458 266.254 109.099C266.653 108.951 266.916 108.684 267.077 108.473C267.241 108.259 267.359 108.024 267.447 107.811C267.778 107.013 268.012 105.713 268.212 103.96L265.43 103.644ZM254.427 76.4989C257.933 76.8976 261.097 79.8068 263.219 84.782C265.322 89.7135 266.254 96.3963 265.43 103.644L268.212 103.96C269.08 96.3212 268.12 89.1375 265.794 83.6839C263.487 78.274 259.687 74.2795 254.743 73.7173L254.427 76.4989ZM236.796 127.952C244.627 127.058 250.509 127.312 255.665 129.316C260.808 131.314 265.405 135.124 270.517 141.69L272.726 139.97C267.444 133.186 262.47 128.957 256.68 126.706C250.903 124.461 244.489 124.256 236.478 125.171L236.796 127.952ZM222.587 132.868C227.048 130.376 231.813 128.521 236.796 127.952L236.478 125.171C231.019 125.794 225.894 127.813 221.222 130.424L222.587 132.868ZM185.918 142.461C199.644 143.946 208.974 140.476 222.587 132.868L221.222 130.424C207.825 137.911 199.108 141.072 186.219 139.677L185.918 142.461ZM176.186 122.793C173.254 124.078 171.035 125.762 169.748 127.714C168.43 129.711 168.112 131.971 169.016 134.137C169.894 136.239 171.838 138.047 174.621 139.447C177.418 140.855 181.177 141.912 185.908 142.459L186.23 139.678C181.717 139.157 178.3 138.164 175.879 136.946C173.445 135.721 172.13 134.328 171.599 133.058C171.095 131.852 171.218 130.569 172.084 129.256C172.98 127.899 174.685 126.508 177.311 125.356L176.186 122.793ZM188.698 124.614C185.034 121.347 180.578 120.867 176.186 122.793L177.311 125.356C180.792 123.83 184.061 124.23 186.835 126.704L188.698 124.614ZM189.17 124.955C189.017 124.872 188.861 124.76 188.698 124.614L186.835 126.704C187.125 126.962 187.453 127.207 187.826 127.412L189.17 124.955ZM184.979 119.877C187.655 121.546 189.004 123.657 189.326 124.907C189.404 125.21 189.405 125.399 189.395 125.483C189.384 125.567 189.377 125.456 189.522 125.328C189.875 125.017 190.01 125.415 189.17 124.955L187.826 127.412C188.841 127.966 190.283 128.389 191.373 127.429C191.885 126.977 192.103 126.374 192.172 125.837C192.24 125.301 192.174 124.742 192.037 124.208C191.496 122.111 189.6 119.46 186.461 117.502L184.979 119.877ZM170.987 120.087C175.684 118.005 181.003 117.397 184.979 119.877L186.461 117.502C181.335 114.305 174.916 115.283 169.852 117.527L170.987 120.087ZM166.426 122.738C167.63 121.79 169.114 120.917 170.987 120.087L169.852 117.527C167.818 118.429 166.122 119.414 164.694 120.538L166.426 122.738ZM165.552 143.934C163.695 140.311 162.431 136.098 162.4 132.229C162.369 128.38 163.549 125.003 166.426 122.738L164.694 120.538C160.941 123.493 159.565 127.82 159.601 132.252C159.636 136.664 161.06 141.308 163.06 145.211L165.552 143.934ZM197.959 167.945C189.769 165.426 183.488 162.929 178.348 159.327C173.24 155.747 169.184 151.023 165.552 143.934L163.06 145.211C166.865 152.637 171.202 157.738 176.742 161.62C182.25 165.479 188.871 168.079 197.136 170.621L197.959 167.945ZM260.957 172.582C249.516 174.386 240.388 175.086 230.831 174.415C221.267 173.743 211.214 171.693 197.929 167.936L197.167 170.63C210.544 174.412 220.802 176.516 230.635 177.207C240.475 177.899 249.829 177.17 261.392 175.347L260.957 172.582ZM316.442 205.301C303.404 200.758 293.993 196.672 285.773 191.737C277.559 186.805 270.484 180.996 262.146 172.957L260.203 174.972C268.63 183.098 275.875 189.059 284.332 194.137C292.783 199.21 302.393 203.37 315.521 207.944L316.442 205.301ZM356.73 204.209C349.689 207.933 343.657 209.476 337.419 209.479C331.143 209.481 324.566 207.925 316.411 205.29L315.551 207.954C323.779 210.613 330.695 212.281 337.42 212.278C344.184 212.275 350.663 210.585 358.039 206.683L356.73 204.209ZM368.171 186.344C369.229 189.85 368.258 193.292 366.025 196.428C363.781 199.579 360.329 202.305 356.73 204.209L358.039 206.683C361.916 204.633 365.746 201.646 368.305 198.052C370.876 194.442 372.231 190.108 370.851 185.535L368.171 186.344ZM365.956 181.556C367.013 183.31 367.728 184.876 368.171 186.344L370.851 185.535C370.327 183.796 369.502 182.015 368.353 180.11L365.956 181.556ZM354.613 173.359C359.293 173.608 363.301 177.156 365.956 181.556L368.353 180.11C365.492 175.368 360.794 170.885 354.762 170.564L354.613 173.359ZM348.268 175.116C347.316 175.01 347.655 174.761 347.766 175.219C347.811 175.406 347.742 175.494 347.781 175.419C347.821 175.344 347.93 175.19 348.168 174.986C349.149 174.147 351.464 173.192 354.613 173.359L354.762 170.564C351.067 170.367 347.994 171.451 346.348 172.859C345.929 173.218 345.555 173.638 345.303 174.116C345.051 174.595 344.884 175.215 345.045 175.878C345.387 177.289 346.81 177.771 347.96 177.898L348.268 175.116ZM348.85 175.107C348.633 175.132 348.441 175.135 348.268 175.116L347.96 177.898C348.383 177.945 348.792 177.933 349.178 177.887L348.85 175.107ZM360.144 180.79C357.651 176.694 353.725 174.532 348.85 175.107L349.178 177.887C352.869 177.452 355.777 178.999 357.753 182.246L360.144 180.79ZM340.901 191.325C345.09 193.591 348.776 194.88 351.874 195.331C354.957 195.78 357.586 195.414 359.511 194.196C361.495 192.941 362.53 190.906 362.596 188.515C362.66 186.177 361.809 183.525 360.144 180.79L357.753 182.246C359.243 184.695 359.842 186.813 359.797 188.438C359.754 190.01 359.119 191.131 358.014 191.83C356.851 192.566 354.975 192.954 352.278 192.561C349.596 192.171 346.228 191.023 342.232 188.863L340.901 191.325ZM316.355 162.431C323.143 176.471 328.796 184.665 340.892 191.32L342.241 188.868C330.883 182.618 325.556 175.028 318.875 161.212L316.355 162.431ZM307.535 150.255C311.29 153.579 314.131 157.831 316.355 162.431L318.875 161.212C316.545 156.394 313.505 151.8 309.391 148.158L307.535 150.255ZM272.033 142.168C279.986 139.721 285.936 139.237 291.296 140.549C296.669 141.865 301.633 145.03 307.535 150.255L309.391 148.158C303.353 142.815 297.982 139.304 291.962 137.83C285.928 136.352 279.427 136.964 271.209 139.492L272.033 142.168ZM188.319 214.423H161.936V217.222H188.319V214.423ZM189.719 224.437V215.822H186.919V224.437H189.719ZM180.512 225.837H188.319V223.038H180.512V225.837ZM181.912 249.475V224.437H179.112V249.475H181.912ZM169.743 250.875H180.512V248.075H169.743V250.875ZM168.343 224.437V249.475H171.143V224.437H168.343ZM161.936 225.837H169.743V223.038H161.936V225.837ZM160.536 215.822V224.437H163.335V215.822H160.536ZM191.048 232.693C191.048 229.683 191.297 227.147 191.775 225.065L189.046 224.438C188.508 226.783 188.248 229.542 188.248 232.693H191.048ZM191.734 240.115C191.281 238.022 191.048 235.553 191.048 232.693H188.248C188.248 235.697 188.493 238.373 188.998 240.707L191.734 240.115ZM193.963 245C192.928 243.733 192.173 242.119 191.733 240.111L188.998 240.711C189.516 243.07 190.435 245.106 191.794 246.77L193.963 245ZM198.252 247.892C196.417 247.217 195.001 246.241 193.952 244.987L191.805 246.784C193.209 248.461 195.054 249.699 197.286 250.519L198.252 247.892ZM205.532 248.883C202.517 248.883 200.097 248.533 198.229 247.884L197.309 250.528C199.569 251.314 202.325 251.682 205.532 251.682V248.883ZM212.784 247.886C210.949 248.533 208.548 248.883 205.532 248.883V251.682C208.737 251.682 211.481 251.314 213.715 250.526L212.784 247.886ZM217.056 245C216.043 246.24 214.638 247.214 212.773 247.89L213.726 250.522C215.989 249.702 217.844 248.462 219.225 246.77L217.056 245ZM219.331 240.111C218.892 242.112 218.126 243.721 217.067 244.987L219.214 246.784C220.608 245.118 221.546 243.077 222.065 240.711L219.331 240.111ZM220.016 232.693C220.016 235.553 219.782 238.022 219.33 240.115L222.066 240.707C222.571 238.373 222.816 235.697 222.816 232.693H220.016ZM219.248 225.082C219.753 227.157 220.016 229.688 220.016 232.693H222.816C222.816 229.537 222.54 226.773 221.968 224.421L219.248 225.082ZM216.907 220.154C217.982 221.382 218.775 222.998 219.243 225.061L221.973 224.442C221.424 222.018 220.452 219.954 219.014 218.311L216.907 220.154ZM212.621 217.373C214.45 217.991 215.855 218.923 216.896 220.142L219.025 218.323C217.613 216.67 215.758 215.478 213.518 214.721L212.621 217.373ZM205.532 216.414C208.459 216.414 210.805 216.749 212.615 217.371L213.524 214.723C211.326 213.968 208.647 213.615 205.532 213.615V216.414ZM198.442 217.373C200.287 216.749 202.638 216.414 205.532 216.414V213.615C202.443 213.615 199.768 213.969 197.545 214.721L198.442 217.373ZM194.111 220.154C195.186 218.927 196.612 217.992 198.442 217.373L197.545 214.721C195.307 215.478 193.443 216.667 192.005 218.311L194.111 220.154ZM191.772 225.078C192.27 223.003 193.068 221.376 194.122 220.142L191.994 218.323C190.595 219.96 189.628 222.013 189.049 224.425L191.772 225.078ZM199.825 227.085V241.084H202.624V227.085H199.825ZM201.585 223.499C200.191 224.197 199.825 225.705 199.825 227.085H202.624C202.624 226.581 202.694 226.284 202.76 226.127C202.791 226.055 202.816 226.023 202.824 226.014C202.83 226.007 202.833 226.006 202.837 226.003L201.585 223.499ZM205.352 222.813C203.86 222.813 202.519 222.989 201.541 223.523L202.882 225.98C203.22 225.796 203.973 225.613 205.352 225.613V222.813ZM209.884 222.813H205.352V225.613H209.884V222.813ZM211.284 238.212V224.213H208.484V238.212H211.284ZM209.567 241.819C210.913 241.086 211.284 239.606 211.284 238.212H208.484C208.484 238.714 208.415 239.02 208.345 239.19C208.284 239.337 208.235 239.357 208.227 239.362L209.567 241.819ZM205.711 242.484C207.235 242.484 208.596 242.329 209.547 241.831L208.248 239.351C207.942 239.511 207.179 239.684 205.711 239.684V242.484ZM201.224 242.484H205.711V239.684H201.224V242.484ZM255.062 248.075H244.921V250.875H255.062V248.075ZM253.662 215.822V249.475H256.462V215.822H253.662ZM244.293 217.222H255.062V214.423H244.293V217.222ZM245.693 230.36V215.822H242.893V230.36H245.693ZM244.069 231.76H244.293V228.96H244.069V231.76ZM242.521 228.993C242.587 229.304 242.642 229.77 242.67 230.421L245.467 230.299C245.436 229.574 245.371 228.934 245.258 228.407L242.521 228.993ZM242.391 228.571C242.379 228.554 242.395 228.571 242.424 228.649C242.453 228.724 242.487 228.836 242.521 228.993L245.258 228.407C245.151 227.909 244.98 227.38 244.669 226.944L242.391 228.571ZM234.166 216.616L242.377 228.551L244.684 226.964L236.472 215.029L234.166 216.616ZM225.179 217.222H235.319V214.423H225.179V217.222ZM226.578 249.475V215.822H223.779V249.475H226.578ZM235.947 248.075H225.179V250.875H235.947V248.075ZM234.548 234.937V249.475H237.347V234.937H234.548ZM236.172 233.537H235.947V236.337H236.172V233.537ZM237.72 236.304C237.653 235.993 237.598 235.527 237.57 234.876L234.773 234.998C234.805 235.723 234.87 236.363 234.982 236.89L237.72 236.304ZM237.849 236.726C237.861 236.743 237.846 236.726 237.816 236.649C237.788 236.573 237.754 236.461 237.72 236.304L234.982 236.89C235.089 237.388 235.26 237.918 235.571 238.353L237.849 236.726ZM246.075 248.681L237.863 236.746L235.557 238.333L243.768 250.268L246.075 248.681ZM256.459 216.337L266.15 240.836L268.754 239.806L259.062 215.307L256.459 216.337ZM269.651 214.423H257.76V217.222H269.651V214.423ZM273.97 227.329L271.009 215.483L268.293 216.162L271.254 228.008L273.97 227.329ZM273.016 226.268H272.612V229.068H273.016V226.268ZM274.665 215.478L271.659 227.324L274.373 228.012L277.379 216.167L274.665 215.478ZM287.913 214.423H276.022V217.222H287.913V214.423ZM279.522 240.836L289.214 216.337L286.611 215.307L276.919 239.806L279.522 240.836ZM279.621 249.475V240.321H276.821V249.475H279.621ZM267.452 250.875H278.221V248.075H267.452V250.875ZM266.052 240.321V249.475H268.852V240.321H266.052ZM317.565 90.6753C313.058 88.5668 307.73 89.9821 302.933 93.3848C298.097 96.8149 293.519 102.434 290.261 109.397L292.797 110.584C295.888 103.977 300.18 98.7699 304.552 95.6682C308.964 92.5389 313.183 91.7159 316.379 93.2111L317.565 90.6753ZM320.695 123.633C323.952 116.669 325.331 109.554 324.865 103.644C324.402 97.7808 322.073 92.7837 317.565 90.6753L316.379 93.2111C319.575 94.7062 321.648 98.4722 322.074 103.864C322.496 109.209 321.25 115.84 318.159 122.447L320.695 123.633ZM314.73 120.528C314.765 121.939 314.797 123.259 314.876 124.319C314.916 124.851 314.97 125.349 315.048 125.781C315.121 126.183 315.237 126.655 315.462 127.053C315.697 127.467 316.275 128.132 317.248 128.008C317.961 127.918 318.446 127.417 318.697 127.125C319.279 126.449 319.93 125.268 320.695 123.633L318.159 122.447C317.389 124.095 316.877 124.948 316.575 125.299C316.509 125.376 316.488 125.386 316.514 125.367C316.536 125.352 316.667 125.26 316.895 125.231C317.159 125.198 317.425 125.265 317.634 125.405C317.812 125.524 317.886 125.652 317.897 125.672C317.911 125.697 317.861 125.605 317.802 125.281C317.749 124.987 317.705 124.598 317.668 124.111C317.595 123.135 317.564 121.894 317.528 120.459L314.73 120.528ZM311.192 105.174C311.8 105.458 312.368 106.05 312.867 107.053C313.366 108.055 313.741 109.357 314.014 110.869C314.561 113.899 314.653 117.468 314.73 120.528L317.528 120.459C317.453 117.447 317.362 113.653 316.769 110.371C316.472 108.728 316.037 107.138 315.373 105.804C314.709 104.471 313.758 103.284 312.378 102.638L311.192 105.174ZM297 111.976C299.476 110.12 302.318 107.993 305.011 106.547C306.355 105.825 307.597 105.308 308.685 105.069C309.775 104.829 310.591 104.893 311.192 105.174L312.378 102.638C311.023 102.004 309.522 102.018 308.084 102.335C306.643 102.652 305.145 103.297 303.686 104.08C300.773 105.646 297.758 107.909 295.321 109.736L297 111.976ZM290.261 109.397C289.485 111.058 288.991 112.354 288.876 113.272C288.824 113.686 288.792 114.42 289.276 115.021C289.858 115.742 290.694 115.725 291.136 115.645C291.592 115.563 292.046 115.357 292.437 115.148C292.85 114.927 293.301 114.644 293.771 114.327C294.707 113.695 295.819 112.862 297 111.976L295.321 109.736C294.12 110.636 293.071 111.422 292.205 112.006C291.773 112.298 291.412 112.522 291.119 112.678C290.974 112.755 290.858 112.81 290.768 112.845C290.676 112.883 290.636 112.89 290.638 112.89C290.641 112.889 290.665 112.885 290.706 112.885C290.747 112.884 290.813 112.888 290.895 112.907C291.08 112.95 291.293 113.062 291.455 113.262C291.727 113.599 291.621 113.879 291.654 113.62C291.708 113.192 292.012 112.263 292.797 110.584L290.261 109.397Z" fill="#475E76" mask="url(#path-2-inside-1)"/>
</g>
<defs>
<filter id="filter0_d" x="157.261" y="75.051" width="216.478" height="182.71" filterUnits="userSpaceOnUse" color-interpolation-filters="sRGB">
<feFlood flood-opacity="0" result="BackgroundImageFix"/>
<feColorMatrix in="SourceAlpha" type="matrix" values="0 0 0 0 0 0 0 0 0 0 0 0 0 0 0 0 0 0 127 0"/>
<feOffset dy="3.73917"/>
<feGaussianBlur stdDeviation="1.86958"/>
<feColorMatrix type="matrix" values="0 0 0 0 0.32549 0 0 0 0 0.631373 0 0 0 0 0.00392157 0 0 0 0.5 0"/>
<feBlend mode="normal" in2="BackgroundImageFix" result="effect1_dropShadow"/>
<feBlend mode="normal" in="SourceGraphic" in2="effect1_dropShadow" result="shape"/>
</filter>
</defs>
</svg>
